<svg width="99" height="98" viewBox="0 0 99 98" fill="none" xmlns="http://www.w3.org/2000/svg">
<g id="Social Icons" clip-path="url(#clip0_155_860)">
<path id="Vector" d="M49.5 8.82383C62.5922 8.82383 64.1426 8.88125 69.2914 9.11094C74.0766 9.32148 76.6605 10.1254 78.3832 10.7953C80.6609 11.6758 82.307 12.7477 84.0105 14.4512C85.7332 16.1738 86.7859 17.8008 87.6664 20.0785C88.3363 21.8012 89.1402 24.4043 89.3508 29.1703C89.5805 34.3383 89.6379 35.8887 89.6379 48.9617C89.6379 62.0539 89.5805 63.6043 89.3508 68.7531C89.1402 73.5383 88.3363 76.1223 87.6664 77.8449C86.7859 80.1227 85.7141 81.7688 84.0105 83.4723C82.2879 85.1949 80.6609 86.2477 78.3832 87.1281C76.6605 87.7981 74.0574 88.602 69.2914 88.8125C64.1234 89.0422 62.573 89.0996 49.5 89.0996C36.4078 89.0996 34.8574 89.0422 29.7086 88.8125C24.9234 88.602 22.3395 87.7981 20.6168 87.1281C18.3391 86.2477 16.693 85.1758 14.9895 83.4723C13.2668 81.7496 12.2141 80.1227 11.3336 77.8449C10.6637 76.1223 9.85977 73.5191 9.64922 68.7531C9.41953 63.5852 9.36211 62.0348 9.36211 48.9617C9.36211 35.8695 9.41953 34.3191 9.64922 29.1703C9.85977 24.3852 10.6637 21.8012 11.3336 20.0785C12.2141 17.8008 13.2859 16.1547 14.9895 14.4512C16.7121 12.7285 18.3391 11.6758 20.6168 10.7953C22.3395 10.1254 24.9426 9.32148 29.7086 9.11094C34.8574 8.88125 36.4078 8.82383 49.5 8.82383ZM49.5 0C36.1973 0 34.532 0.0574219 29.3066 0.287109C24.1004 0.516797 20.5211 1.35898 17.4203 2.56484C14.1855 3.82812 11.4484 5.49336 8.73047 8.23047C5.99336 10.9484 4.32812 13.6855 3.06484 16.9012C1.85898 20.0211 1.0168 23.5812 0.787109 28.7875C0.557422 34.032 0.5 35.6973 0.5 49C0.5 62.3027 0.557422 63.968 0.787109 69.1934C1.0168 74.3996 1.85898 77.9789 3.06484 81.0797C4.32812 84.3145 5.99336 87.0516 8.73047 89.7695C11.4484 92.4875 14.1855 94.1719 17.4012 95.416C20.5211 96.6219 24.0812 97.4641 29.2875 97.6938C34.5129 97.9234 36.1781 97.9809 49.4809 97.9809C62.7836 97.9809 64.4488 97.9234 69.6742 97.6938C74.8805 97.4641 78.4598 96.6219 81.5605 95.416C84.7762 94.1719 87.5133 92.4875 90.2312 89.7695C92.9492 87.0516 94.6336 84.3145 95.8777 81.0988C97.0836 77.9789 97.9258 74.4188 98.1555 69.2125C98.3852 63.9871 98.4426 62.3219 98.4426 49.0191C98.4426 35.7164 98.3852 34.0512 98.1555 28.8258C97.9258 23.6195 97.0836 20.0402 95.8777 16.9395C94.6719 13.6855 93.0066 10.9484 90.2695 8.23047C87.5516 5.5125 84.8145 3.82813 81.5988 2.58398C78.4789 1.37812 74.9187 0.535938 69.7125 0.30625C64.468 0.0574219 62.8027 0 49.5 0Z" fill="white"/>
<path id="Vector_2" d="M49.5 23.8301C35.6039 23.8301 24.3301 35.1039 24.3301 49C24.3301 62.8961 35.6039 74.1699 49.5 74.1699C63.3961 74.1699 74.6699 62.8961 74.6699 49C74.6699 35.1039 63.3961 23.8301 49.5 23.8301ZM49.5 65.327C40.4848 65.327 33.173 58.0152 33.173 49C33.173 39.9848 40.4848 32.673 49.5 32.673C58.5152 32.673 65.827 39.9848 65.827 49C65.827 58.0152 58.5152 65.327 49.5 65.327Z" fill="white"/>
<path id="Vector_3" d="M81.5414 22.8346C81.5414 26.0885 78.9 28.7108 75.6652 28.7108C72.4113 28.7108 69.7891 26.0694 69.7891 22.8346C69.7891 19.5807 72.4305 16.9584 75.6652 16.9584C78.9 16.9584 81.5414 19.5998 81.5414 22.8346Z" fill="white"/>
</g>
<defs>
<clipPath id="clip0_155_860">
<rect width="98" height="98" fill="white" transform="translate(0.5)"/>
</clipPath>
</defs>
</svg>
