<?xml version="1.0" encoding="UTF-8"?>
<svg id="Layer_2" xmlns="http://www.w3.org/2000/svg" version="1.1" viewBox="0 0 1136.7 230.2">
  <!-- Generator: Adobe Illustrator 29.6.1, SVG Export Plug-In . SVG Version: 2.1.1 Build 9)  -->
  <defs>
    <style>
      .st0 {
        fill: #757575;
      }

      .st1 {
        isolation: isolate;
      }

      .st2 {
        fill: #b2b2b2;
      }
    </style>
  </defs>
  <g class="st1">
    <g class="st1">
      <path class="st0" d="M122.3,149.9v20.1H7.2l.2-2.1c2.5-27.6,31.7-58.6,50.4-78.4,17.2-18.2,28.5-31.5,35.2-44.8-5.7.6-10,.8-13.1.8H16.4v-20.1h105.1l-.4,3.5c-2.9,26.2-26.6,54.1-46.9,74.5-19.2,19.2-31.7,33.8-38.7,47.9l.4-.2c5.1-.8,11.1-1.2,15.4-1.2h70.9Z"/>
    </g>
    <g class="st1">
      <path class="st0" d="M135.6,115.9c0-33.6,18.8-56.5,56.3-56.5s56.3,22.9,56.3,56.5-18.8,56.5-56.3,56.5-56.3-22.9-56.3-56.5ZM227.1,115.9c0-22.5-10.6-36.9-35.2-36.9s-35.2,14.5-35.2,36.9,10.4,37.1,35.2,37.1,35.2-14.7,35.2-37.1Z"/>
      <path class="st0" d="M263.1,61.8h17.6l1.6,19.9c8-15.2,21.1-22.5,38.9-22.5,26,0,42.8,16.2,42.8,48.7v62.1h-19.9v-62.1c0-19.5-10.4-28.9-28.1-28.9s-32.8,13.3-32.8,36.5v54.5h-19.9V61.8Z"/>
      <path class="st0" d="M378.2,115.9c0-32.8,19.5-56.5,53.5-56.5s51.6,23.1,51.6,56.5-.2,5.5-.8,8.8h-82.9c1.8,18.8,15.8,29.3,36,29.3s23.8-2.7,35.4-9.6l7.8,16.4c-12.1,7.6-26.4,11.5-44.4,11.5-36.7,0-56.3-23.1-56.3-56.5ZM462.6,108.1c-1.2-18.8-11.3-30.3-30.9-30.3s-31.5,11.7-31.5,30.3h62.3Z"/>
    </g>
    <g class="st1">
      <path class="st2" d="M499.9,25.4h99.3v20.1h-78.6v40.7h71.7v20.1h-71.7v63.7h-20.7V25.4Z"/>
    </g>
    <g class="st1">
      <path class="st2" d="M621.1,121.2v-59.4h19.9v59.4c0,21.7,10.9,31.9,29.5,31.9s29.5-10.2,29.5-31.9v-59.4h20.1v59.4c0,32.6-18.6,51.2-49.6,51.2s-49.4-18.6-49.4-51.2Z"/>
    </g>
    <g class="st1">
      <path class="st2" d="M737.8,61.8h17.6l1.6,19.9c8-15.2,21.1-22.5,38.9-22.5,26,0,42.8,16.2,42.8,48.7v62.1h-19.9v-62.1c0-19.5-10.4-28.9-28.1-28.9s-32.8,13.3-32.8,36.5v54.5h-19.9V61.8Z"/>
      <path class="st2" d="M859.2,61.8h17.6l1.6,19.9c8-15.2,21.1-22.5,38.9-22.5,26,0,42.8,16.2,42.8,48.7v62.1h-19.9v-62.1c0-19.5-10.4-28.9-28.1-28.9s-32.8,13.3-32.8,36.5v54.5h-19.9V61.8Z"/>
      <path class="st2" d="M974.3,115.9c0-32.8,19.5-56.5,53.5-56.5s51.6,23.1,51.6,56.5-.2,5.5-.8,8.8h-82.9c1.8,18.8,15.8,29.3,36,29.3s23.8-2.7,35.4-9.6l7.8,16.4c-12.1,7.6-26.4,11.5-44.4,11.5-36.7,0-56.3-23.1-56.3-56.5ZM1058.7,108.1c-1.2-18.8-11.3-30.3-30.9-30.3s-31.5,11.7-31.5,30.3h62.3Z"/>
      <path class="st2" d="M1094.3,143.8V28.5l19.9-5.5v116.7c0,9.8,3.3,13.3,10.7,13.3s7-1.2,11.1-4.9v18.4c-2.5,2.9-9,5.9-17,5.9s-24.8-5.7-24.8-28.5Z"/>
    </g>
  </g>
</svg>