<?xml version="1.0" encoding="UTF-8"?>
<svg id="Layer_2" data-name="Layer 2" xmlns="http://www.w3.org/2000/svg" viewBox="0 0 442.98 389.54">
  <defs>
    <style>
      .cls-1 {
        fill: #3c3b45;
      }

      .cls-2 {
        fill: #dcaf85;
      }

      .cls-3 {
        fill: #dcc7b6;
      }

      .cls-4 {
        fill: #915d41;
      }

      .cls-5 {
        fill: #714833;
      }

      .cls-6 {
        fill: #edc086;
      }

      .cls-7 {
        fill: #9d6f58;
      }

      .cls-8 {
        fill: #ff6c16;
      }

      .cls-8, .cls-9, .cls-10, .cls-11, .cls-12, .cls-13 {
        fill-rule: evenodd;
      }

      .cls-14 {
        fill: #3c6e80;
      }

      .cls-15 {
        font-family: Montserrat-Bold, Montserrat;
        font-size: 24.97px;
        font-weight: 700;
      }

      .cls-15, .cls-16 {
        fill: #484658;
      }

      .cls-9 {
        fill: #878f91;
      }

      .cls-17 {
        fill: #efc08a;
      }

      .cls-18 {
        fill: #d9791e;
      }

      .cls-10, .cls-19 {
        fill: #3e87b4;
      }

      .cls-11 {
        fill: #95a0a4;
      }

      .cls-20 {
        fill: #a06748;
      }

      .cls-21 {
        fill: #2d5c68;
      }

      .cls-12 {
        fill: #ff9c5e;
      }

      .cls-22 {
        fill: #fff;
      }

      .cls-23 {
        fill: #567585;
      }

      .cls-24 {
        fill: #e7a27b;
      }

      .cls-25 {
        fill: #fff3d8;
      }

      .cls-26 {
        fill: #732f23;
      }

      .cls-27 {
        fill: #3b323c;
      }

      .cls-28, .cls-13 {
        fill: #4c758b;
      }

      .cls-29 {
        fill: #3c7a8c;
      }

      .cls-30 {
        fill: #9aa8ab;
      }

      .cls-31 {
        fill: none;
        stroke: #d9791e;
        stroke-miterlimit: 10;
        stroke-width: 1.54px;
      }

      .cls-32 {
        fill: #ebd9c5;
      }
    </style>
  </defs>
  <g id="OBJECTS">
    <path class="cls-25" d="M424.61,274c-29.03,80.18-56.68,76.03-56.68,76.03l-185.38-.87-109.08-.51S1.59,376.3,5.74,309.94c1.2-19.18,11.18-35.82,24.49-51.79.5-.6,1.01-1.2,1.52-1.8,11.23-13.2,24.63-25.98,37.07-39.42,23.9-25.82,44.31-54.04,39.22-92.24-11.06-82.95,136.86-131.33,185.25-26.27,48.39,105.06,160.36,95.39,131.33,175.57Z"/>
    <ellipse class="cls-32" cx="224.39" cy="363.69" rx="218.59" ry="25.85"/>
    <g>
      <g>
        <rect class="cls-22" x="19.15" y="227.56" width="143.35" height="87.58" rx="3.19" ry="3.19"/>
        <path class="cls-19" d="M22.34,227.56h136.97c1.76,0,3.19,1.43,3.19,3.19v5.81H19.15v-5.81c0-1.76,1.43-3.19,3.19-3.19Z"/>
      </g>
      <g>
        <path class="cls-19" d="M78.85,258.12v.94s.02,15.94.02,15.94c0,.22.18.4.4.4l18.76-.08v-15.67c0-.37-.3-.66-.67-.66l-6.46.03-7.36.03-.28-.52-.36-.66c-.08-.15-.24-.25-.41-.24h-3.15c-.27.01-.48.23-.48.5Z"/>
        <polygon class="cls-22" points="100.57 261.32 80.65 261.32 79.27 274.8 99.19 274.8 100.57 261.32"/>
        <path class="cls-19" d="M79.53,275.62l20.2.08c.27,0,.49-.17.54-.43l1.98-9.71.46-2.26c.08-.41-.27-.83-.7-.83h-.49s-19.72-.08-19.72-.08c-.27,0-.49.17-.54.43l-2.3,11.3-.06.29-.08.37c-.08.41.27.82.7.83Z"/>
      </g>
      <g>
        <path class="cls-2" d="M118.5,258.12v.94s.02,15.94.02,15.94c0,.22.18.4.4.4l18.76-.08v-15.67c0-.37-.3-.66-.67-.66l-6.46.03-7.36.03-.28-.52-.36-.66c-.08-.15-.24-.25-.41-.24h-3.15c-.27.01-.48.23-.48.5Z"/>
        <polygon class="cls-22" points="140.21 261.32 120.29 261.32 118.91 274.8 138.83 274.8 140.21 261.32"/>
        <path class="cls-2" d="M119.17,275.62l20.2.08c.27,0,.49-.17.54-.43l1.98-9.71.46-2.26c.08-.41-.27-.83-.7-.83h-.49s-19.72-.08-19.72-.08c-.27,0-.49.17-.54.43l-2.3,11.3-.06.29-.08.37c-.08.41.27.82.7.83Z"/>
      </g>
      <g>
        <path class="cls-24" d="M78.85,285.52v.94s.02,15.94.02,15.94c0,.22.18.4.4.4l18.76-.08v-15.67c0-.37-.3-.66-.67-.66l-6.46.03-7.36.03-.28-.52-.36-.66c-.08-.15-.24-.25-.41-.24h-3.15c-.27.01-.48.23-.48.5Z"/>
        <polygon class="cls-22" points="100.57 288.73 80.65 288.73 79.27 302.2 99.19 302.2 100.57 288.73"/>
        <path class="cls-24" d="M79.53,303.03l20.2.08c.27,0,.49-.17.54-.43l1.98-9.71.46-2.26c.08-.41-.27-.83-.7-.83h-.49s-19.72-.08-19.72-.08c-.27,0-.49.17-.54.43l-2.3,11.3-.06.29-.08.37c-.08.41.27.82.7.83Z"/>
      </g>
      <g>
        <path class="cls-2" d="M118.5,285.52v.94s.02,15.94.02,15.94c0,.22.18.4.4.4l18.76-.08v-15.67c0-.37-.3-.66-.67-.66l-6.46.03-7.36.03-.28-.52-.36-.66c-.08-.15-.24-.25-.41-.24h-3.15c-.27.01-.48.23-.48.5Z"/>
        <polygon class="cls-22" points="140.21 288.73 120.29 288.73 118.91 302.2 138.83 302.2 140.21 288.73"/>
        <path class="cls-2" d="M119.17,303.03l20.2.08c.27,0,.49-.17.54-.43l1.98-9.71.46-2.26c.08-.41-.27-.83-.7-.83h-.49s-19.72-.08-19.72-.08c-.27,0-.49.17-.54.43l-2.3,11.3-.06.29-.08.37c-.08.41.27.82.7.83Z"/>
      </g>
      <g>
        <path class="cls-2" d="M57.18,248.7h-27.49c-.99,0-1.8-.81-1.8-1.8h0c0-.99.81-1.8,1.8-1.8h27.49c.99,0,1.8.81,1.8,1.8h0c0,.99-.81,1.8-1.8,1.8Z"/>
        <path class="cls-2" d="M57.18,261.59h-27.49c-.99,0-1.8-.81-1.8-1.8h0c0-.99.81-1.8,1.8-1.8h27.49c.99,0,1.8.81,1.8,1.8h0c0,.99-.81,1.8-1.8,1.8Z"/>
        <path class="cls-2" d="M57.18,274.48h-27.49c-.99,0-1.8-.81-1.8-1.8h0c0-.99.81-1.8,1.8-1.8h27.49c.99,0,1.8.81,1.8,1.8h0c0,.99-.81,1.8-1.8,1.8Z"/>
        <path class="cls-2" d="M57.18,287.37h-27.49c-.99,0-1.8-.81-1.8-1.8h0c0-.99.81-1.8,1.8-1.8h27.49c.99,0,1.8.81,1.8,1.8h0c0,.99-.81,1.8-1.8,1.8Z"/>
        <path class="cls-2" d="M57.18,300.26h-27.49c-.99,0-1.8-.81-1.8-1.8h0c0-.99.81-1.8,1.8-1.8h27.49c.99,0,1.8.81,1.8,1.8h0c0,.99-.81,1.8-1.8,1.8Z"/>
      </g>
      <path class="cls-2" d="M144.37,248.7h-72.05c-.99,0-1.8-.81-1.8-1.8h0c0-.99.81-1.8,1.8-1.8h72.05c.99,0,1.8.81,1.8,1.8h0c0,.99-.81,1.8-1.8,1.8Z"/>
    </g>
    <g>
      <g>
        <path class="cls-2" d="M31.53,224.03l-7.51-7.55-14.78-.04-.1,32.18,22.32.05.07-24.64Z"/>
        <polygon class="cls-22" points="24 224.01 31.53 224.03 24.02 216.48 24 224.01"/>
      </g>
      <g>
        <circle class="cls-24" cx="20.3" cy="233.64" r="5.79" transform="translate(-212.33 203.88) rotate(-77.75)"/>
        <path class="cls-22" d="M18.72,235.96l-.98-2.27c-.08-.19,0-.42.2-.51.2-.08.42,0,.51.2l.62,1.44,4.43-2.85c.18-.11.42-.06.53.12.11.18.06.42-.12.53l-5.19,3.33Z"/>
      </g>
    </g>
    <path class="cls-9" d="M79.17,125.86l3.7-3.36.87-3.02c3.08-9.51,9.16-17.93,17.24-23.84l1.98-1.37-3.7,3.36-1.98,1.37c-9.12,6.68-15.25,15.98-18.11,26.86M163.03,106.84l3.7-3.36.36-20.75-3.7,3.36-.36,20.75ZM185.18,78.89c-2-1.9-3.8-3.62-5.96-5.38-26.68-21.73-65.57-23.97-93.41-3.36,2.32-1.29,4.42-2.46,6.85-3.59,28.49-13.16,62.57-8.15,85.89,12.91l2.92,2.78,2,2,3.7-3.36-2-2Z"/>
    <path class="cls-8" d="M157.82,174.03l3.7-3.36c-4.94,4.3-10.29,7.44-16.51,9.52l-.66.22-3.7,3.36c6.59-2.15,11.95-5.18,17.17-9.74M275.74,99.81l3.7-3.36,2.43-18.5-21.48-5.23-3.7,3.36,21.48,5.23-2.43,18.5Z"/>
    <polygon class="cls-9" points="256.68 76.08 260.38 72.71 260.15 72.89 259.93 73.07 259.7 73.25 259.48 73.43 259.26 73.62 259.03 73.8 258.81 73.98 258.59 74.17 258.37 74.35 258.15 74.54 257.93 74.73 254.23 78.09 254.45 77.9 254.67 77.72 254.89 77.53 255.11 77.35 255.33 77.16 255.56 76.98 255.78 76.8 256 76.62 256.23 76.44 256.45 76.26 256.68 76.08"/>
    <path class="cls-9" d="M275.66,169.35l-18.73,1.71-3.7,3.36,18.73-1.71c2.58,2.35,4.56,4.02,7.54,5.9,20.86,13.19,48.88,8.49,64.07-11.24l.53-.7,3.7-3.36c-7.74,10.23-18.68,16.91-31.41,18.83-13.93,2.1-28.28-1.92-38.94-11.16l-1.79-1.64ZM370.52,182.03c7.29-6.63,11.11-15.78,13.93-25.09l-18.16,7.18-10.15-19.26-3.7,3.36,10.15,19.26,18.16-7.18-1.09,3.41c-2.3,6.69-5.23,12.43-9.14,18.32Z"/>
    <path class="cls-13" d="M382.12,154.98l3.7-3.36.9-4.79c5.04-32.24-10.13-64.4-38.59-80.61-24.77-14.11-55.81-13.65-80.15,1.21l-2.9,1.86-3.7,3.36c3.11-1.99,5.54-3.5,8.88-5.16,28.95-14.36,64.26-9.57,88.19,12.3,20.17,18.43,29.2,45.99,24.16,72.8l-.49,2.39Z"/>
    <path class="cls-9" d="M267.87,168.63l3.7-3.36-30.92-30.89-3.52,3.52,30.74,30.74ZM248.48,192.29l3.7-3.36.38-21.92-3.7,3.36-.38,21.92ZM191.27,84.98l-19.81,1.81-3.7,3.36,19.81-1.81,28.03,28.03,3.53-3.53-27.87-27.87Z"/>
    <path class="cls-13" d="M154.55,211.13l3.7-3.36,3.04-17.93-26.25-7.44c-8.68.86-16.82-.2-24.86-3.69-19.49-8.45-30.87-28.62-28.51-49.65l.17-1.37-17.01,6.72-11.05-20.98-3.7,3.36,11.05,20.98,17.01-6.72c-.15.3-.44,4.79-.46,5.48-.8,28.96,23.5,51.82,52.32,49.36l1.33-.13,26.25,7.44-3.04,17.93Z"/>
    <path class="cls-11" d="M91.72,103.77c18.73-18.73,49.52-18.73,68.25,0l3.07,3.07.36-20.75,20.1-1.83-2-2c-30.6-30.6-80.68-30.6-111.29,0-8.35,8.35-14.42,18.14-18.21,28.59l11.23,21.32,15.96-6.31c2.06-8.12,6.24-15.78,12.54-22.08"/>
    <path class="cls-10" d="M91.72,172.02c-11.09-11.09-15.62-26.43-13.56-40.97l-17.01,6.72-11.05-20.98c-7.29,26.46-.59,56.06,20.1,76.75,22.7,22.7,56.12,28.56,84.36,17.59l3.04-17.93-26.25-7.44c-14.14,1.6-28.87-2.98-39.63-13.73"/>
    <polygon class="cls-11" points="215.61 159.42 248.48 192.29 248.86 170.37 267.87 168.63 237.13 137.89 215.61 159.42"/>
    <polygon class="cls-11" points="215.61 116.37 187.57 88.34 167.76 90.15 167.4 111.2 194.09 137.9 215.61 116.37"/>
    <path class="cls-10" d="M280.65,96.46c18.51-10.98,43-8.54,58.85,7.31,10.05,10.05,14.71,23.58,13.97,36.86l11.19,21.25,17.46-6.9c5.58-25.4-1.45-53.08-21.1-72.73-26.97-26.97-69.07-30.17-99.64-9.6l21.7,5.28-2.43,18.53Z"/>
    <path class="cls-11" d="M339.5,172.02c-18.49,18.49-48.75,18.72-67.54.7l-18.73,1.71-.38,22.06c30.8,27.62,78.58,26.63,108.17-2.95,9.57-9.57,16.15-21.04,19.73-33.23l-18.16,7.18-10.15-19.26c-1.89,8.75-6.2,17.05-12.94,23.8"/>
    <path class="cls-12" d="M181.49,193.54l34.12-34.12,21.52-21.52,34.12-34.12c1.43-1.43,2.93-2.75,4.49-3.96l2.43-18.5-21.48-5.23c-2.41,1.9-4.73,3.95-6.95,6.17l-34.12,34.12-21.52,21.52-34.12,34.12c-5.58,5.58-12.23,9.5-19.31,11.75l21.99,6.23-3.22,19.04c8-3.75,15.48-8.92,22.07-15.5"/>
    <ellipse class="cls-3" cx="206.95" cy="370.73" rx="95.41" ry="11.48"/>
    <g>
      <g>
        <path class="cls-22" d="M212.33,315.73l15.6,14.11,12.68-9.09,7.68,9.09c15.7-3.99,26.88-8.99,35.97-14.45l-9.92-6.1-32.81-3.64-29.2,10.08Z"/>
        <path class="cls-24" d="M191.02,263.71c6.36.59,12.73,1.19,19.09,1.78l5.29-19.59.95,33.32-3.21,35.23c1.64,12.23,70.3,7.82,71.12.94,1.57-13.19-.05-23.91,0-28.13,4.52-.44,16.06-3.96,15.71-13.21-.74-19.94-5.93-59.87-19.4-67.95-6.64-3.82-21.47-7.2-21.47-7.2l-24.16-.16c-6.57.93-16.88,3.52-23.73,11.9-3.58,4.38-4.87,8.69-5.72,11.49-2.99,9.78-7.43,23.05-14.48,41.59Z"/>
        <path class="cls-22" d="M244.11,212.27l-5.54,6.95c-5.36-6.55-5.56-13.77-5.54-19.65l2.38-3.95.48,3.24c1.43,5.71,8.23,13.41,8.23,13.41Z"/>
        <polygon class="cls-24" points="284.26 287.26 244.86 291.39 233.48 297.36 284.75 296.22 284.26 287.26"/>
        <path class="cls-7" d="M227,276.65c2.56-.84,4.34,1.74,6.48,1.19,2.14-.55,5.59-1.76,6.81-1.19,2.17,1.01,3.7,11.88,0,13.31-3.7,1.43-14.11,1.67-14.11,1.67,0,0-5.82-3.84-5.47-4.37s6.29-10.61,6.29-10.61Z"/>
        <path class="cls-22" d="M246.33,211.92l5.54,6.95c5.36-6.55,5.56-13.77,5.54-19.65l-2.38-3.95-.48,3.24c-1.43,5.71-8.23,13.41-8.23,13.41Z"/>
        <path class="cls-31" d="M270.52,228v34.77l-30.23,13.88s6.84,18.26,1.24,29"/>
        <g>
          <path class="cls-27" d="M231.93,171.49s-3.94-3.53-2.38-5.7c11.42-15.95,41.4-3.87,24.39,21.49-6.19,6.88-17.73-13.76-22.01-15.78Z"/>
          <path class="cls-20" d="M231.81,167.88s-1.12,12.67.06,17.85c1.1,4.81,4.54,7.53,5.75,7.69l-1.76,10.3s7.55,7.16,9.63,7.56,8.85-8.97,8.85-8.97l-1.16-18.26c.79-.54,6.38-1.66,5.53-5.92-.57-2.84-4.18-2.15-5.96-.94.11-1.44-1.78-2.23-2.61-6.94-.83-4.7-10.93-2.38-18.35-2.38Z"/>
          <path class="cls-4" d="M237.63,193.42s9.55,3.67,14.71-5.82c0,0-1.16,11.66-15.3,9.08l.59-3.26Z"/>
          <path class="cls-5" d="M253.67,180.87c-.13,0-.25-.08-.3-.2-.07-.17.01-.35.18-.42l3.63-1.49c.16-.07.35.01.42.18.07.17-.01.35-.18.42l-3.63,1.49s-.08.02-.12.02Z"/>
          <path class="cls-5" d="M239.75,182.71c-.91,0-2.6-.13-2.74-1.11-.15-1.02,1.66-5.06,2.02-5.86.07-.16.27-.23.43-.16.16.07.23.27.16.43-.81,1.79-2.06,4.86-1.97,5.5.06.4,1.39.61,2.54.55.18-.01.33.13.34.3,0,.18-.13.33-.3.34-.1,0-.26.01-.48.01Z"/>
          <path class="cls-27" d="M234.31,177.03c-.02.58.39,1.06.91,1.08.52.02.97-.43.99-1.01s-.39-1.06-.91-1.08c-.52-.02-.97.43-.99,1.01Z"/>
          <path class="cls-5" d="M246.03,173.89c-.11,0-.22-.06-.28-.16-.26-.42-.59-.68-1.02-.78-1.05-.25-2.28.53-2.29.54-.15.1-.35.05-.45-.1-.1-.15-.05-.35.1-.45.06-.04,1.47-.93,2.79-.62.6.14,1.08.5,1.42,1.07.09.15.04.35-.11.44-.05.03-.11.05-.17.05Z"/>
          <path class="cls-5" d="M236.48,173.21c-.08,0-.15-.03-.21-.08h0s-.7-.62-1.38-.55c-.28.03-.52.18-.72.46-.11.14-.31.17-.45.07-.14-.11-.17-.31-.07-.45.31-.43.71-.67,1.18-.72.95-.1,1.83.67,1.87.7.13.12.15.32.03.46-.06.07-.15.11-.24.11Z"/>
          <path class="cls-26" d="M243.28,184.6c-4.77,1.14-7.08.21-7.08.21,0,0,.33,3.2,3.28,3.48,4.21.41,3.8-3.69,3.8-3.69Z"/>
          <path class="cls-22" d="M236.39,184.87s.22.59.29.71c.07.12.61.46,2.65.59,1.73.11,3.43-.39,3.9-.55.09-.58.05-1.02.05-1.02-.28.07-.55.12-.81.18-3.48.71-5.49.26-6.08.09h0Z"/>
          <path class="cls-27" d="M242.25,177.63c-.02.6.4,1.09.94,1.11s1-.45,1.02-1.04c.02-.6-.4-1.09-.94-1.11-.54-.02-1,.45-1.02,1.04Z"/>
        </g>
      </g>
      <g>
        <path class="cls-2" d="M169.59,314.35l-20.94-53.83c-1.85-4.63,1.47-9.71,6.36-9.71h65.23c2.94,0,5.56,1.92,6.51,4.78l17.99,54.3,21,.1c1.71,0,3.09,2.56,3.09,4.31h0l-23.12-.27-76.11.32Z"/>
        <path class="cls-22" d="M200.53,281.72c.38,3.92-2.82,7.07-7.19,7.18-4.41.11-8.61-2.9-9.36-6.9-.79-4.18,2.47-7.74,7.27-7.78,4.74-.04,8.88,3.4,9.28,7.49Z"/>
      </g>
      <g>
        <polygon class="cls-1" points="217.56 350.25 230.76 361.47 216.69 363.46 202.23 356.36 217.56 350.25"/>
        <g>
          <path class="cls-1" d="M132.79,290.65s-10,3.57-10.05,14.79c-.08,21.49,43.41,45.17,43.41,45.17l57.88-38.35,3.63-1.47s-78.13-29.35-94.88-20.14Z"/>
          <path class="cls-19" d="M176.71,353.67s-27.26-5.81-35.96-1.6c-8.7,4.21-21.47,9.1-17.16,12.24,4.31,3.14,20.22,7.39,29.41,6.56,3.28-.3,7.89-.79,12.48-1.51.26.03.51.05.73.05.19,0,.35-.09.49-.25,7.83-1.29,15.23-3.23,15.36-5.92.2-4.39-5.35-9.58-5.35-9.58Z"/>
          <path class="cls-16" d="M160.68,353.22s81.78-53.64,85.13-54.76c3.35-1.12,11.44-6.42,19.53-4.19,8.09,2.23,15.35,9.49,18.98,20.09,2.07,6.06,3.05,16.39,3.51,24.15.55,9.27-2.32,18.51-8.38,25.54-2.76,3.2-6.16,5.98-10.2,7.24-.85.26-1.74.49-2.64.69-15.46,3.35-31.35-3.59-40.04-16.81l-1.91-2.9s-53.5,19.65-54.33,19.37l-9.64-18.42Z"/>
        </g>
        <g>
          <path class="cls-19" d="M221.99,356.7s-24.28-8.38-30.32-6.44c-6.04,1.94,4.16,16.39,22.34,17.55,18.18,1.16,27.54-3.12,26.29-8.76-1.26-5.64-18.3-2.35-18.3-2.35Z"/>
          <path class="cls-28" d="M221.7,359.78s-24.28-8.38-30.32-6.44,4.16,16.39,22.34,17.55c18.18,1.16,27.54-3.12,26.29-8.76-1.26-5.64-18.3-2.35-18.3-2.35Z"/>
        </g>
      </g>
    </g>
    <ellipse class="cls-3" cx="332.02" cy="357.69" rx="33.42" ry="7.86"/>
    <g>
      <g>
        <path class="cls-14" d="M360.04,200.18c-.04-.32-.44-.57-.74-.56-7.26.12-16.37.14-22.52,4.63-5.73,4.18-6.59,11.57-6.46,18.15.01.71.79.9,1.24.6.02,0,.03.03.06.04,15.27,5.71,30.6-6.84,28.44-22.85Z"/>
        <path class="cls-29" d="M324.86,229.9c.06-5.06-1.12-10.17-5-13.68-4.45-4.02-10.9-6.32-16.16-9.05-.54-.28-1.4.2-1.13.87,2.38,6.06,2.05,13.46,6.25,18.72,3.57,4.47,9.62,5.98,14.99,4.33.27-.08.42-.27.49-.48.3-.08.56-.31.56-.71Z"/>
        <path class="cls-29" d="M371.82,246.38c-3.57-2.77-8.18-2.49-12.5-2.3-4.79.21-9.62.94-13.98,3.02-7.61,3.62-12.96,11.61-10.2,20.07-.07.36.07.76.51.9,7.25,2.3,10.76-2.55,15.12-7.37,5.6-6.18,12.77-10.58,20.72-13.03.5-.15.82-.91.34-1.29Z"/>
        <path class="cls-29" d="M389.18,264.45c-.09-.03-.19-.08-.28-.12-3.08-1.32-5.84-3.83-8.64-6.25,0-.02-.02-.02-.03-.03-3.07-2.65-6.19-5.16-9.84-5.82-.03-.02-.06-.02-.09-.02-1.68-.31-3.46-.2-5.42.45-7.76,2.59-12.53,10.67-13.3,18.45-.02.18.05.34.12.45-.01.04-.03.08-.05.12-.12.43.11,1,.69,1.08,6.65.79,13.18.02,19.69-1.36,5.77-1.22,12.3-2.2,17.32-5.54.58-.38.43-1.16-.18-1.4Z"/>
        <path class="cls-29" d="M377.63,279.34c-8.49-1.7-26.04-6.02-27.24,7.51-.04.43.24.66.57.72,7.71,9.04,22.69,1.87,27.13-7.1.2-.41.06-1.03-.46-1.13Z"/>
        <path class="cls-14" d="M323.81,252.11c-2.25-4.99-7.49-10.14-12.64-12.02-.47-.17-.98.27-.98.74.09,9.82-2.32,25.29,8.36,30.72.08.04.15.05.23.06.28.43.98.59,1.3,0,3.3-5.89,6.76-12.79,3.72-19.52Z"/>
        <path class="cls-29" d="M295.99,258.37c-5.22-4.27-13.46-5.19-19.54-2.11-8.42,4.28-6.91,14.42-8.19,22.24-.12.76.68,1.28,1.29.75,8.32-7.3,19.93-10.17,26.28-19.73h0c.41-.24.62-.77.16-1.15Z"/>
        <path class="cls-14" d="M296.04,266.1c-.24-.37-.63-.41-.95-.28-.21-.27-.57-.42-.96-.21-4.17,2.29-9.06,5.49-9.88,10.53-.98,6.01,2.4,11.88,2.78,17.81.05.81,1.34,1.11,1.51.21,1.07-5.69,6.97-8.29,9.14-13.41,1.78-4.22.84-10.85-1.64-14.64Z"/>
        <path class="cls-14" d="M321.77,301.04c-4.9-6.88-9.94-12.76-18.45-14.92-.62-.16-1.26.55-.87,1.13,1.92,2.88,1.88,6.15,3.48,9.06.95,1.72,2.51,3.01,4.15,4.04,3.63,2.29,8.31,4.37,12.35,2.06.82-.47.15-1.69-.67-1.37Z"/>
        <path class="cls-29" d="M332.82,292.91c-.02-.07-.04-.15-.08-.22-3.37-5.38-3.52-12.21-8.17-16.84-.36-.36-.95-.26-1.21.16-2.28,3.65-3.38,8.04-1.57,12.13,1.96,4.43,6.09,5.64,10.58,6.1.79.08.93-.89.45-1.33Z"/>
        <path class="cls-29" d="M342.27,232.81c-.96-.8-2.24,0-3.19.4-1.78.76-3.53,1.63-5.08,2.79-2.91,2.17-4.91,5.25-5.1,8.88-.02.09-.03.18-.02.28,0,.11-.02.21-.02.31,0,.87,1.2.97,1.48.3,3.73-.82,6.68-3.22,9.12-6.1,1.12-1.32,5.05-4.99,2.81-6.87Z"/>
        <path class="cls-29" d="M343.96,293.53c-.12-.11-.21-.24-.32-.35.96-6.57,1.37-14.18-5.1-18.04-.42-.25-1.01-.02-1.13.46-1.78,6.95.26,14.08,5.47,19.02.72.68,1.81-.41,1.09-1.09Z"/>
        <path class="cls-14" d="M388.52,263.68c-2.85-1.26-5.53-3.45-8.25-5.6,0-.02-.02-.02-.03-.03-3.13-2.48-6.3-4.91-9.84-5.82-.03-.02-.06-.02-.09-.02-1.68-.31-3.46-.2-5.42.45-7.76,2.59-12.53,10.67-13.3,18.45-.02.18.05.34.12.45-.01.04-.03.08-.05.12.26-.02.51-.14.66-.37.15-.03.29-.08.42-.22,2.53-2.7,5.22-5.2,7.87-7.78,1.28-1.23,2.53-2.79,3.97-3.82,3.08-2.2,5.73-1.79,8.96-.85,3.86,1.12,7.39,3.13,10.9,5.05,1.31.74,2.59,1.99,4.08,1.31.26-.11.39-.4.39-.68s-.14-.54-.39-.65Z"/>
        <path class="cls-21" d="M320.34,289.6c-.73-2.99-1.56-6.01-2.57-8.97.01-.03.03-.04.04-.07,1.38-4.73,1.91-9.54,1.63-14.33.26-.04.5-.2.6-.52.89-2.83,1.26-5.72,1.12-8.68-.05-.99-1.59-.99-1.54,0,.1,2.05-.07,4.05-.49,6.03-.31-2.28-.79-4.55-1.48-6.8-.29-.95-1.78-.54-1.48.41,2.17,7.08,2.39,14.29.68,21.42-1.44-3.67-3.25-7.18-5.68-10.29-5.7-7.3-16.07-11.74-24.29-8.3-.02-.28-.19-.54-.55-.63-3.18-.77-6.38-.29-9.19,1.4-.85.51-.07,1.84.78,1.33,2.29-1.37,4.83-1.84,7.42-1.36-1.9,1.07-3.65,2.61-5.16,4.7-.58.81.75,1.58,1.33.78,3.94-5.46,11.09-7.18,17.36-5.15,1.82.59,3.5,1.45,5.05,2.5-6.56-.14-11.54,4.26-16.02,8.63-.71.69.38,1.78,1.09,1.09.89-.87,1.8-1.74,2.73-2.57-.26,1.55-.31,3.11-.14,4.7.1.97,1.64.99,1.54,0-.21-2.02-.07-4,.44-5.97.03-.11.03-.2.02-.29,3.17-2.51,6.72-4.33,11.07-4.02.41.03.64-.22.71-.52,3.49,2.76,6.24,6.5,8.23,10.46,3.96,7.87,6.22,16.87,7.5,25.88-3.18-.82-5.96-2.49-8.19-4.93-.67-.73-1.76.36-1.09,1.09,1.12,1.23,2.39,2.28,3.77,3.14-.89,0-1.77-.05-2.66-.18-.97-.15-1.39,1.33-.41,1.48,1.48.23,2.94.32,4.44.22.32-.02.53-.2.64-.43,1.14.52,2.33.94,3.58,1.23.05.01.1,0,.15,0,.56,4.37.9,8.72,1.1,12.93.05.99,1.59.99,1.54,0-.41-8.57-1.57-17.08-3.62-25.42Z"/>
        <path class="cls-21" d="M345.89,257.95c-1.39,1.01-2.71,2.08-3.97,3.2.74-2.73,1.9-5.27,3.55-7.61.57-.81-.76-1.58-1.33-.78-2.01,2.86-3.38,6.03-4.09,9.45-.05.23,0,.43.11.58-3.43,3.36-6.36,7.16-8.72,11.4-.42-5.31-.77-10.62-1.03-15.94-.18-3.78-.48-8.01-.58-12.36,1.78-2.4,3.67-4.76,6.44-6.06.9-.42.12-1.75-.78-1.33-2.35,1.1-4.11,2.93-5.69,4.92-.01-2.04.02-4.1.15-6.14.12-.21.15-.46.04-.71.77-10.87,4.04-21.14,14.45-25.94.9-.42.12-1.74-.78-1.33-2.64,1.22-4.83,2.77-6.65,4.58-.08-1.49.16-2.96.71-4.37.36-.92-1.13-1.32-1.49-.41-.78,2-.96,4.08-.62,6.19,0,.04.02.05.03.08-4.43,5.29-6.26,12.35-6.92,19.66-2.23-2.59-4.46-5.18-6.69-7.77.22-.11.37-.32.35-.64-.14-2.16-.82-4.19-2.07-5.97-.57-.8-1.9-.03-1.33.78.93,1.31,1.5,2.76,1.74,4.32-.83-.96-1.66-1.92-2.49-2.88-.65-.75-1.73.34-1.09,1.09,3.8,4.41,7.61,8.83,11.41,13.24-.17,2.69-.19,5.4-.15,8.04-.04.05-.07.09-.1.14-.26.35-.14.69.12.9.05,2.59.15,5.12.25,7.51.49,12.28,1.43,24.53,2.77,36.74-2.77-1.53-4.3-4.41-5.68-7.18-.44-.89-1.77-.11-1.33.78,1.59,3.17,3.4,6.49,6.77,8.04.14.07.28.07.41.06.88,7.84,1.94,15.66,3.16,23.46.15.97,1.64.56,1.49-.41-2-12.8-3.55-25.67-4.63-38.58.14-.06.27-.15.36-.32,3.53-6.8,8.46-12.58,14.67-17.08.79-.58.03-1.91-.78-1.33Z"/>
        <path class="cls-21" d="M371.37,259.16c-3.24-.06-6.19.71-8.87,2.05,1.14-1.22,2.37-2.35,3.7-3.36.78-.59.01-1.93-.78-1.33-2.59,1.98-4.82,4.27-6.74,6.9-.07.1-.12.21-.13.31-5.21,4.09-9.06,10.33-11.46,16.29-1.46,3.62-2.53,7.36-3.37,11.17-.86-1.44-1.34-3.06-1.87-4.65-.43-1.27-.81-2.42-1.99-3.16-.84-.53-1.62.8-.78,1.33,1.24.78,1.53,3.04,1.98,4.33.44,1.26.92,2.45,1.7,3.55.16.22.38.32.6.33-1.87,9.31-2.38,18.98-3.28,28.3-.1.98,1.45.98,1.54,0,.83-8.68,1.37-17.55,2.94-26.19.11-.04.22-.09.32-.21,2.91-3.21,5.92-6.44,9.59-8.68,1.11,1.03,2.39,1.8,3.83,2.29.94.32,1.34-1.17.41-1.48-1.05-.36-1.99-.9-2.83-1.59,1.02-.52,2.08-.99,3.21-1.33.95-.28.54-1.77-.41-1.48-1.49.45-2.88,1.06-4.19,1.79-.24.01-.45.16-.59.35-3.33,1.98-6.15,4.72-8.82,7.6.51-2.42,1.09-4.83,1.83-7.2,1.49-4.8,3.84-10.12,7.12-14.56.03,0,.05,0,.08,0,1.75-.58,3.54-1,5.37-1.25.98-.13.56-1.62-.41-1.49-1.15.16-2.27.4-3.39.69,4.02-4.64,9.21-7.9,15.67-7.78.99.02.99-1.52,0-1.54Z"/>
      </g>
      <g>
        <polygon class="cls-24" points="358.52 307.14 357.3 314.77 355.1 328.44 350.32 358.23 315.29 358.23 310.5 328.44 308.3 314.77 307.08 307.14 358.52 307.14"/>
        <polygon class="cls-18" points="321.7 314.77 320.48 307.14 307.08 307.14 308.3 314.77 310.5 328.44 315.29 358.23 328.69 358.23 323.9 328.44 321.7 314.77"/>
      </g>
    </g>
    <path class="cls-17" d="M421.44,313.04h-3.36v-3.37c0-.73-.59-1.31-1.32-1.31s-1.31.58-1.31,1.31v3.37h-3.36c-.73,0-1.31.58-1.31,1.3s.59,1.32,1.31,1.32h3.36v3.36c0,.73.58,1.32,1.31,1.32s1.32-.59,1.32-1.32v-3.36h3.36c.73,0,1.32-.6,1.32-1.32s-.59-1.3-1.32-1.3Z"/>
    <path class="cls-17" d="M10.67,195.2h-3.36v-3.37c0-.73-.59-1.31-1.32-1.31s-1.31.58-1.31,1.31v3.37H1.31c-.73,0-1.31.58-1.31,1.3s.59,1.32,1.31,1.32h3.36v3.36c0,.73.58,1.32,1.31,1.32s1.32-.59,1.32-1.32v-3.36h3.36c.73,0,1.32-.6,1.32-1.32s-.59-1.3-1.32-1.3Z"/>
    <path class="cls-17" d="M386.01,314.35c0,3.24,2.63,5.87,5.87,5.87s5.87-2.63,5.87-5.87-2.63-5.87-5.87-5.87-5.87,2.64-5.87,5.87ZM388.26,314.35c0-1.99,1.62-3.62,3.62-3.62s3.62,1.63,3.62,3.62-1.62,3.62-3.62,3.62-3.62-1.62-3.62-3.62Z"/>
    <path class="cls-17" d="M383.87,218.88c0,3.24,2.63,5.87,5.87,5.87s5.87-2.63,5.87-5.87-2.63-5.87-5.87-5.87-5.87,2.64-5.87,5.87ZM386.12,218.88c0-1.99,1.62-3.62,3.62-3.62s3.62,1.63,3.62,3.62-1.62,3.62-3.62,3.62-3.62-1.62-3.62-3.62Z"/>
    <path class="cls-17" d="M17.99,172.58c0,3.24,2.63,5.87,5.87,5.87s5.87-2.63,5.87-5.87-2.63-5.87-5.87-5.87-5.87,2.64-5.87,5.87ZM20.24,172.58c0-1.99,1.62-3.62,3.62-3.62s3.62,1.63,3.62,3.62-1.62,3.62-3.62,3.62-3.62-1.62-3.62-3.62Z"/>
    <path class="cls-17" d="M24.35,195.03c-.82,0-1.48.67-1.48,1.49s.66,1.47,1.48,1.47h14.79c.82,0,1.48-.65,1.48-1.47s-.66-1.49-1.48-1.49h-14.79Z"/>
    <path class="cls-17" d="M45.48,195.03c-.81,0-1.48.67-1.48,1.49s.67,1.47,1.48,1.47h2.71c.82,0,1.48-.65,1.48-1.47s-.66-1.49-1.48-1.49h-2.71Z"/>
    <g>
      <path class="cls-17" d="M385.45,289.18c-.82,0-1.48.67-1.48,1.49s.66,1.47,1.48,1.47h14.79c.82,0,1.48-.65,1.48-1.47s-.66-1.49-1.48-1.49h-14.79Z"/>
      <path class="cls-17" d="M406.59,289.18c-.81,0-1.48.67-1.48,1.49s.67,1.47,1.48,1.47h2.71c.82,0,1.48-.65,1.48-1.47s-.66-1.49-1.48-1.49h-2.71Z"/>
    </g>
    <g>
      <path class="cls-17" d="M107.42,153.16c-.82,0-1.48.67-1.48,1.49s.66,1.47,1.48,1.47h14.79c.82,0,1.48-.65,1.48-1.47s-.66-1.49-1.48-1.49h-14.79Z"/>
      <path class="cls-17" d="M128.55,153.16c-.81,0-1.48.67-1.48,1.49s.67,1.47,1.48,1.47h2.71c.82,0,1.48-.65,1.48-1.47s-.66-1.49-1.48-1.49h-2.71Z"/>
    </g>
    <g>
      <path class="cls-30" d="M231.17,49.62l.57-1.73-4.01-2.7-2.98,1.93c-1.29-1.07-2.74-1.88-4.27-2.43l.14-3.54-4.98-2.43-.57,1.73-.74,3.47c-1.62.15-3.22.58-4.74,1.3l-2.41-2.6-3.85,1.71-.57,1.73,1.93,2.98c-1.07,1.29-1.88,2.74-2.43,4.27l-2.97-1.87-.57,1.73-.7,5.55,3.47.74c.15,1.62.58,3.22,1.3,4.74l-2.03.68-.57,1.73,3.44,4.43,2.98-1.93c1.29,1.07,2.74,1.88,4.27,2.43l-.14,3.54,5.55.7.57-1.73.17-1.74c1.62-.15,3.23-.58,4.74-1.3l2.41,2.6,4.43-3.44.57-1.73-2.5-1.25c1.07-1.29,1.88-2.74,2.43-4.27l3.54.14.57-1.73.12-3.83-3.47-.74c-.15-1.62-.58-3.23-1.3-4.74l2.6-2.41ZM221.09,65.1c-3.86,3-9.41,2.3-12.41-1.56-3-3.86-2.3-9.41,1.56-12.41,3.86-3,9.41-2.3,12.41,1.56,3,3.86,2.3,9.41-1.56,12.41Z"/>
      <path class="cls-2" d="M231.74,47.89l-3.44-4.42-2.98,1.93c-1.29-1.07-2.74-1.88-4.27-2.43l.14-3.54-5.56-.7-.74,3.47c-1.62.15-3.22.58-4.74,1.3l-2.41-2.6-4.42,3.44,1.93,2.98c-1.07,1.29-1.88,2.74-2.43,4.27l-3.54-.14-.7,5.55,3.47.74c.15,1.62.58,3.22,1.3,4.74l-2.6,2.41,3.44,4.42,2.98-1.93c1.29,1.07,2.74,1.88,4.27,2.43l-.14,3.54,5.55.7.74-3.47c1.62-.15,3.23-.58,4.74-1.3l2.41,2.6,4.43-3.44-1.93-2.98c1.07-1.29,1.88-2.74,2.43-4.27l3.54.14.7-5.55-3.47-.74c-.15-1.62-.58-3.23-1.3-4.74l2.6-2.41ZM221.66,63.37c-3.86,3-9.41,2.3-12.41-1.56-3-3.86-2.3-9.41,1.56-12.41,3.86-3,9.41-2.3,12.41,1.56,3,3.86,2.3,9.41-1.56,12.41Z"/>
    </g>
    <g>
      <path class="cls-18" d="M231.83,14.07l.43-1.78-2.91-3.27-3.32,1.29c-1.05-1.32-2.31-2.41-3.7-3.26l.86-3.46-5.32-1.82-1.44,3.26c-1.63-.18-3.29-.09-4.92.31l-1.84-3.05-4.62.7-.43,1.78,1.29,3.32c-1.31,1.05-2.41,2.31-3.26,3.7l-3.46-.86-1.38,3.54-.43,1.78,3.26,1.44c-.18,1.63-.09,3.29.31,4.92l-2.62.06-.43,1.78,2.48,5.05,3.32-1.29c1.05,1.31,2.31,2.41,3.71,3.26l-.86,3.46,5.32,1.82,1.44-3.26c1.63.18,3.29.08,4.92-.31l1.84,3.05,5.05-2.48.43-1.78-1.72-1.54c1.32-1.05,2.41-2.31,3.26-3.71l3.46.86,1.82-5.32.43-1.78-3.69.34c.18-1.63.08-3.29-.31-4.92l3.05-1.84ZM218.78,27.23c-4.4,2.16-9.72.34-11.88-4.05-2.16-4.4-.34-9.72,4.05-11.88,4.4-2.16,9.72-.34,11.88,4.05,2.16,4.4.34,9.72-4.05,11.88Z"/>
      <path class="cls-24" d="M232.26,12.29l-2.48-5.05-3.32,1.29c-1.05-1.32-2.31-2.41-3.7-3.26l.86-3.46-5.32-1.82-1.44,3.26c-1.63-.18-3.29-.09-4.92.31l-1.84-3.05-5.05,2.48,1.29,3.32c-1.31,1.05-2.41,2.31-3.26,3.7l-3.46-.86-1.82,5.32,3.26,1.44c-.18,1.63-.09,3.29.31,4.92l-3.05,1.84,2.48,5.05,3.32-1.29c1.05,1.31,2.31,2.41,3.71,3.26l-.86,3.46,5.32,1.82,1.44-3.26c1.63.18,3.29.08,4.92-.31l1.84,3.05,5.05-2.48-1.29-3.32c1.32-1.05,2.41-2.31,3.26-3.71l3.46.86,1.82-5.32-3.26-1.44c.18-1.63.08-3.29-.31-4.92l3.05-1.84ZM219.21,25.45c-4.4,2.16-9.72.34-11.88-4.05-2.16-4.4-.34-9.72,4.05-11.88,4.4-2.16,9.72-.34,11.88,4.05,2.16,4.4.34,9.72-4.05,11.88Z"/>
    </g>
    <g>
      <path class="cls-23" d="M268.31,22.65l.69-2.1-6.13-1.97-2.86,3.21c-1.85-.84-3.8-1.32-5.77-1.46l-.98-4.18-6.02-1.12-.69,2.09.25,4.29c-1.85.7-3.58,1.71-5.12,3.04l-3.65-2.26-3.37,3.35-.69,2.09,3.21,2.86c-.83,1.85-1.32,3.8-1.46,5.77l-3.49-1.11-.69,2.1.97,6.71,4.29-.25c.7,1.85,1.72,3.58,3.04,5.12l-1.57,1.56-.69,2.1,5.44,4.06,2.86-3.21c1.85.83,3.8,1.32,5.77,1.47l.98,4.18,6.71-.97.69-2.09-.94-2.19c1.85-.7,3.58-1.72,5.12-3.04l3.65,2.26,4.06-5.44.69-2.1-3.9-.76c.84-1.85,1.32-3.8,1.46-5.77l4.18-.98.69-2.09-1.67-4.62-4.29.25c-.7-1.85-1.72-3.58-3.04-5.12l2.26-3.65ZM261.51,43.97c-3.54,4.74-10.25,5.71-14.99,2.17-4.74-3.54-5.71-10.25-2.17-14.99,3.54-4.74,10.25-5.71,14.99-2.17,4.74,3.54,5.71,10.25,2.17,14.99Z"/>
      <path class="cls-19" d="M269,20.55l-5.44-4.06-2.86,3.21c-1.85-.84-3.8-1.32-5.77-1.46l-.98-4.18-6.71.97.25,4.29c-1.85.7-3.58,1.71-5.12,3.04l-3.65-2.26-4.06,5.44,3.21,2.86c-.83,1.85-1.32,3.8-1.46,5.77l-4.18.98.97,6.71,4.29-.25c.7,1.85,1.72,3.58,3.04,5.12l-2.26,3.65,5.44,4.06,2.86-3.21c1.85.83,3.8,1.32,5.77,1.47l.98,4.18,6.71-.97-.25-4.29c1.85-.7,3.58-1.72,5.12-3.04l3.65,2.26,4.06-5.44-3.21-2.86c.84-1.85,1.32-3.8,1.46-5.77l4.18-.98-.97-6.71-4.29.25c-.7-1.85-1.72-3.58-3.04-5.12l2.26-3.65ZM262.21,41.87c-3.54,4.74-10.25,5.71-14.99,2.17-4.74-3.54-5.71-10.25-2.17-14.99,3.54-4.74,10.25-5.71,14.99-2.17,4.74,3.54,5.71,10.25,2.17,14.99Z"/>
    </g>
    <g>
      <path class="cls-19" d="M62.82,35.82h70.42c1.8,0,3.26,1.46,3.26,3.26v34.12c0,1.8-1.46,3.26-3.26,3.26H62.82c-1.8,0-3.26-1.46-3.26-3.26v-34.12c0-1.8,1.46-3.26,3.26-3.26Z"/>
      <path class="cls-6" d="M59.56,45.4v33.48c0,1.8,1.46,3.26,3.26,3.26h70.42c1.8,0,3.26-1.46,3.26-3.26v-33.48H59.56Z"/>
    </g>
    <path class="cls-16" d="M71.45,40.79c0,1.38-1.12,2.5-2.5,2.5s-2.5-1.12-2.5-2.5,1.12-2.5,2.5-2.5,2.5,1.12,2.5,2.5Z"/>
    <path class="cls-16" d="M80.96,40.79c0,1.38-1.12,2.5-2.5,2.5s-2.5-1.12-2.5-2.5,1.12-2.5,2.5-2.5,2.5,1.12,2.5,2.5Z"/>
  </g>
  <g id="TEXTS">
    <text class="cls-15" transform="translate(78.46 70.16)"><tspan x="0" y="0">{...}</tspan></text>
  </g>
</svg>