<svg xmlns="http://www.w3.org/2000/svg" version="1.1" xmlns:xlink="http://www.w3.org/1999/xlink" width="1000" height="1000"><style>
    #light-icon {
      display: inline;
    }
    #dark-icon {
      display: none;
    }

    @media (prefers-color-scheme: dark) {
      #light-icon {
        display: none;
      }
      #dark-icon {
        display: inline;
      }
    }
  </style><g id="light-icon"><svg xmlns="http://www.w3.org/2000/svg" version="1.1" xmlns:xlink="http://www.w3.org/1999/xlink" width="1000" height="1000"><g><g transform="matrix(4.738662749372127,0,0,4.738662749372127,4.549116239397279,5.684341886080802e-14)"><svg xmlns="http://www.w3.org/2000/svg" version="1.1" xmlns:xlink="http://www.w3.org/1999/xlink" width="209.11" height="211.03"><svg id="Layer_2" data-name="Layer 2" xmlns="http://www.w3.org/2000/svg" viewBox="0 0 209.11 211.03">
  <defs>
    <style>
      .cls-1 {
        fill: #0f2830;
      }

      .cls-2 {
        fill: #006837;
      }
    </style>
  </defs>
  <g id="Layer_1-2" data-name="Layer 1">
    <g>
      <path class="cls-1" d="M166.49,115.25l-45.51,25.38-46.65-13.25,75.45-42.09c13.11-7.31,17.84-23.95,10.52-37.06-7.32-13.1-23.95-17.83-37.07-10.51L.22,106.36l-.22-.06v-39.1L106.54,7.79c6.11-3.42,12.58-5.67,19.12-6.83,7.19-1.29,14.48-1.26,21.53,0,17.59,3.11,33.69,13.8,43.05,30.58,16.54,29.63,5.88,67.17-23.74,83.71Z"></path>
      <path class="cls-2" d="M209.11,104.71v39.11l-106.52,59.42c-6.1,3.41-12.55,5.67-19.07,6.82-7.24,1.31-14.58,1.27-21.69,0-17.55-3.14-33.61-13.83-42.95-30.58-16.54-29.63-5.88-67.18,23.75-83.71l45.5-25.39,46.65,13.24-75.46,42.1c-13.11,7.31-17.83,23.95-10.51,37.06,7.31,13.11,23.94,17.83,37.06,10.51l123.03-68.64.2.06Z"></path>
    </g>
  </g>
</svg></svg></g></g></svg></g><g id="dark-icon"><svg xmlns="http://www.w3.org/2000/svg" version="1.1" xmlns:xlink="http://www.w3.org/1999/xlink" width="1000" height="1000"><g><g transform="matrix(4.738662749372127,0,0,4.738662749372127,4.549116239397279,5.684341886080802e-14)"><svg xmlns="http://www.w3.org/2000/svg" version="1.1" xmlns:xlink="http://www.w3.org/1999/xlink" width="209.11" height="211.03"><svg id="Layer_2" data-name="Layer 2" xmlns="http://www.w3.org/2000/svg" viewBox="0 0 209.11 211.03">
  <defs>
    <style>
      .cls-1 {
        fill: #ffc078;
      }

      .cls-2 {
        fill: #a0733f;
      }
    </style>
  </defs>
  <g id="Layer_1-2" data-name="Layer 1">
    <g>
      <path class="cls-2" d="M166.49,115.25l-45.51,25.38-46.65-13.25,75.45-42.09c13.11-7.31,17.84-23.95,10.52-37.06-7.32-13.1-23.95-17.83-37.07-10.51L.22,106.36l-.22-.06v-39.1L106.54,7.79c6.11-3.42,12.58-5.67,19.12-6.83,7.19-1.29,14.48-1.26,21.53,0,17.59,3.11,33.69,13.8,43.05,30.58,16.54,29.63,5.88,67.17-23.74,83.71Z"></path>
      <path class="cls-1" d="M209.11,104.71v39.11l-106.52,59.42c-6.1,3.41-12.55,5.67-19.07,6.82-7.24,1.31-14.58,1.27-21.69,0-17.55-3.14-33.61-13.83-42.95-30.58-16.54-29.63-5.88-67.18,23.75-83.71l45.5-25.39,46.65,13.24-75.46,42.1c-13.11,7.31-17.83,23.95-10.51,37.06,7.31,13.11,23.94,17.83,37.06,10.51l123.03-68.64.2.06Z"></path>
    </g>
  </g>
</svg></svg></g></g></svg></g></svg>