<svg width="99" height="98" viewBox="0 0 99 98" fill="none" xmlns="http://www.w3.org/2000/svg">
<g id="Social Icons" clip-path="url(#clip0_155_858)">
<path id="Vector" d="M49.5 0C22.4383 0 0.5 21.9383 0.5 49C0.5 71.979 16.3211 91.2615 37.6636 96.5574V63.9744H27.5598V49H37.6636V42.5477C37.6636 25.87 45.2115 18.1398 61.5854 18.1398C64.69 18.1398 70.0467 18.7494 72.238 19.357V32.93C71.0816 32.8084 69.0726 32.7477 66.5775 32.7477C58.5434 32.7477 55.4388 35.7916 55.4388 43.7041V49H71.4442L68.6943 63.9744H55.4388V97.6413C79.7016 94.7111 98.502 74.0527 98.502 49C98.5 21.9383 76.5617 0 49.5 0Z" fill="white"/>
</g>
<defs>
<clipPath id="clip0_155_858">
<rect width="98" height="98" fill="white" transform="translate(0.5)"/>
</clipPath>
</defs>
</svg>
