<svg width="99" height="98" viewBox="0 0 99 98" fill="none" xmlns="http://www.w3.org/2000/svg">
<g id="Social Icons" clip-path="url(#clip0_155_861)">
<path id="Vector" d="M91.2457 0H7.73516C3.73477 0 0.5 3.1582 0.5 7.06289V90.918C0.5 94.8227 3.73477 98 7.73516 98H91.2457C95.2461 98 98.5 94.8227 98.5 90.9371V7.06289C98.5 3.1582 95.2461 0 91.2457 0ZM29.5746 83.5105H15.0277V36.7309H29.5746V83.5105ZM22.3012 30.357C17.6309 30.357 13.8602 26.5863 13.8602 21.9352C13.8602 17.284 17.6309 13.5133 22.3012 13.5133C26.9523 13.5133 30.723 17.284 30.723 21.9352C30.723 26.5672 26.9523 30.357 22.3012 30.357ZM84.0105 83.5105H69.4828V60.7715C69.4828 55.3547 69.3871 48.3684 61.9223 48.3684C54.3617 48.3684 53.2133 54.2828 53.2133 60.3887V83.5105H38.7047V36.7309H52.6391V43.1238H52.8305C54.7637 39.4488 59.5106 35.5633 66.5734 35.5633C81.2926 35.5633 84.0105 45.2484 84.0105 57.843V83.5105V83.5105Z" fill="white"/>
</g>
<defs>
<clipPath id="clip0_155_861">
<rect width="98" height="98" fill="white" transform="translate(0.5)"/>
</clipPath>
</defs>
</svg>
