<svg width="99" height="98" viewBox="0 0 99 98" fill="none" xmlns="http://www.w3.org/2000/svg">
<g id="Social Icons" clip-path="url(#clip0_155_862)">
<path id="Vector" d="M97.5238 29.4002C97.5238 29.4002 96.5668 22.6435 93.6191 19.6767C89.8867 15.772 85.7141 15.7529 83.8 15.5232C70.0953 14.5279 49.5191 14.5279 49.5191 14.5279H49.4809C49.4809 14.5279 28.9047 14.5279 15.2 15.5232C13.2859 15.7529 9.11328 15.772 5.38086 19.6767C2.4332 22.6435 1.49531 29.4002 1.49531 29.4002C1.49531 29.4002 0.5 37.3435 0.5 45.2677V52.6943C0.5 60.6185 1.47617 68.5619 1.47617 68.5619C1.47617 68.5619 2.4332 75.3185 5.36172 78.2853C9.09414 82.19 13.9941 82.056 16.1762 82.4771C24.0238 83.2236 49.5 83.4533 49.5 83.4533C49.5 83.4533 70.0953 83.415 83.8 82.4388C85.7141 82.2091 89.8867 82.19 93.6191 78.2853C96.5668 75.3185 97.5238 68.5619 97.5238 68.5619C97.5238 68.5619 98.5 60.6377 98.5 52.6943V45.2677C98.5 37.3435 97.5238 29.4002 97.5238 29.4002ZM39.3746 61.7095V34.1662L65.8461 47.9857L39.3746 61.7095Z" fill="white"/>
</g>
<defs>
<clipPath id="clip0_155_862">
<rect width="98" height="98" fill="white" transform="translate(0.5)"/>
</clipPath>
</defs>
</svg>
