<?xml version="1.0" encoding="UTF-8"?>
<svg id="Layer_1" xmlns="http://www.w3.org/2000/svg" xmlns:xlink="http://www.w3.org/1999/xlink" version="1.1" viewBox="0 0 500 500">
  <!-- Generator: Adobe Illustrator 29.6.0, SVG Export Plug-In . SVG Version: 2.1.1 Build 207)  -->
  <defs>
    <style>
      .st0, .st1, .st2, .st3 {
        stroke: #263238;
      }

      .st0, .st1, .st2, .st3, .st4 {
        stroke-linecap: round;
        stroke-linejoin: round;
        stroke-width: 1.6px;
      }

      .st0, .st5 {
        fill: #fff;
      }

      .st6, .st3, .st4 {
        fill: none;
      }

      .st1, .st7 {
        fill: #263238;
      }

      .st8 {
        isolation: isolate;
        opacity: .2;
      }

      .st2, .st9 {
        fill: #f1ce81;
      }

      .st10 {
        clip-path: url(#clippath-1);
      }

      .st11 {
        clip-path: url(#clippath-3);
      }

      .st12 {
        clip-path: url(#clippath-4);
      }

      .st13 {
        clip-path: url(#clippath-2);
      }

      .st4 {
        stroke: #fff;
      }

      .st14 {
        clip-path: url(#clippath);
      }
    </style>
    <clipPath id="clippath">
      <path class="st6" d="M114.7,322.8s13,28.8,16,34.6,6.7,22.3,7.1,32.1,0,11.8-2.2,11.6-3.1-12.5-3.1-14.5v-3.1s-1.1,11.6-2.9,13.8-4.2,4.7-4.5,3.4.4-3.6,1.3-6.9c.5-2.6.7-5.2.5-7.8,0,0-1.3,6.2-4.5,8.5s-6.5,3.1-5.4,1.3,4-3.8,4.7-6c.5-2,.7-4.1.7-6.2,0,0-4.2,6.9-6,8s-1.8-1.3-.7-2.4,3.6-8.7,3.6-8.7c0,0-.7-.5-3.8-7.4-3.1-6.9-4.9-19-5.8-23.6s-2.7-10.9-2.7-10.9l-17.2-28.8s-1.3-6.9,5.1-8.1c6.5-1.2,19.6,21.2,19.6,21.2Z"/>
    </clipPath>
    <clipPath id="clippath-1">
      <path class="st6" d="M130.8,365.8s2.2,10.9,2,15.8.9,7.4-.7,7.4-2-1.1-3.6-6c-1-3.6-1.7-7.4-2-11.1,0,0-5.6,0-7.6-8.3l11.8,2.2Z"/>
    </clipPath>
    <clipPath id="clippath-2">
      <path class="st6" d="M229.6,325.7c-1.8,0-12.8,0-19.4-1.8-6.7-1.8-38-10.5-56.1-17.2-18.1-6.6-39.1-13.7-39.1-13.7-2.9-3.3-5.4-6.8-7.5-10.6-2-3.2-7.2-13.8-12.7-25.1-17.6,4.6-26.4,13-30.8,19.4,9.2,13.2,19.1,25.8,29.8,37.8,6.2,7,21.6,8.8,35.3,10.6s71.4,5.7,71.4,5.7c5,3,10.3,5.3,15.9,7,7,1.8,11,2.2,15.9.4s15-2.6,18.1-3.5,4.9-2.7,3.5-3.5-22.4-5.7-24.2-5.7Z"/>
    </clipPath>
    <clipPath id="clippath-3">
      <path class="st6" d="M119.9,96c7.2,1.9,13.5,6.1,18,12,3.1,3.9,5.1,8.5,6,13.4,2.2,13.1-5.2,17.2-2.9,23.1s4.8,9.1,2.9,11.9-7.9,3.3-8.8,3.6-2.9,11.2-6.7,16-17.2-.7-17.2-.7c0,0-5.5,9.3-7.1,12.4s1.6,21.7-.7,30c-2.3,8.3-7.9-.7-18.3-13.8-10.5-13.1-15.3-23.8-14.8-27.4s8.8-11.9,10.3-15,2.1-4.5,1.4-7.4-9.1-14.6-9.1-29.6,11.9-29.3,27.6-30.5c6.5-.4,13,.3,19.3,2Z"/>
    </clipPath>
    <clipPath id="clippath-4">
      <path class="st6" d="M385.3,297.7c.4,1.3-.8,19-1.7,49.9-.6,23.7-6.3,65.8-8.9,84.1h90c.6-18.6,1.5-61-3.8-78.6-6.8-22.8-14.4-27.5-16.9-37.6s-6.3-66-12.7-87.1c-6.3-21.2-25.4-33.8-28.3-38.5-3-4.6-12.3-31.7-12.3-31.7l-16.1,13.5s11.8,19,13.5,25-11.4,19.9-18.2,34.3c-6.8,14.4-8.1,25.8-2.1,34.7s16.9,30.9,17.3,32.2Z"/>
    </clipPath>
  </defs>
  <g id="freepik--Characters--inject-4">
    <path class="st1" d="M222.2,96.5s-20.7-6.6-36.6,9.7c-15.9,16.3-7.5,48.9-7.5,60.4s-14.6,84.2-14.6,84.2c0,0-7.1,26.4,12.3,43.2,19.4,16.8,55.3,15.3,70.6-17s-.9-78.3-.9-102,3.5-39.7-1.8-56.8c-3.3-10.3-11.3-18.4-21.6-21.7Z"/>
    <path class="st4" d="M216.1,108.9s-20,24.8-33.5,31.9"/>
    <path class="st4" d="M198.8,106.7s-10.3,24.8-19.4,31.9"/>
    <path class="st2" d="M256.3,192.1c3.9,2.7,6.4,7,6.9,11.7,1.2,8.3-7.6,27.4-9.4,36.8-1.7,11.5-2.7,23-3.2,34.6,0,2.9,10,46.6,11.8,57.2s-.9,35.6-2.4,37.5-5.6-6.8-5.9-12.4-11.2-48.7-15.3-61.7-3-30.1-3-30.1c0,0,5.6-39.2,5.6-54.3s.5-26.3.5-26.3l14.4,7Z"/>
    <path class="st0" d="M260,369.8c1.5-1.8,4.1-26.9,2.4-37.5s-11.8-54.3-11.8-57.2c.5-11.6,1.6-23.1,3.2-34.5.6-3,1.5-6,2.5-8.9-3.5,1.7-7.3,2.5-11.1,2.5-2.1,0-4.1,1.9-6,5.1-1.6,13.7-3.4,26.4-3.4,26.4,0,0-1.2,17.1,3,30.1s15,56.1,15.3,61.7c.3,5.6,4.4,14.1,5.9,12.3Z"/>
    <path class="st2" d="M200.8,431.7c.6-7.3,2-22,2.9-27.7,1.2-7.7,3.5-23.3,3.5-23.3l6,51h40.9c1.5-11.1,5.2-41,5.9-61.9.9-26.3-18.9-80.5-19.4-84.7s.6-16.2.6-19.8,10.3-26.2,11.2-37.7,3.5-15,3.5-15l1.5-19.4c-.9-.3-14.1-10.7-27.4-14.6-8.1-2.3-16.6-2.5-24.8-.6,0,0-19.2,8.6-28.9,12.7s-17.7,12.1-18,22.4,18.9,54.3,20.6,57.5-3.8,14.7-6.2,20.6-12.1,27.1-18.6,50.7c-5.6,20.1-1.8,74.3-.6,89.7h47.3Z"/>
    <path class="st3" d="M210,262.5s15.1,1.8,30.3-12.7"/>
    <path class="st0" d="M220.5,220.2c4.4-1.2,10-19.4,10.6-28.9.3-5.3.6-9.2.5-12.2-.6-.2-1.1-.4-1.6-.5-8.1-2.3-16.6-2.5-24.8-.6l-7.8,3.5c-.7,4.2-.2,8.5,1.3,12.5,3.2,8.9,17.3,27.5,21.8,26.3Z"/>
    <path class="st0" d="M200.8,169s1.5,17.4,2.4,21.6,9.8,21.1,14.9,20.1,8.3-22.9,8.3-25,.6-19.4.6-19.4c0,0-10.7,8.8-26.2,2.7Z"/>
    <path class="st2" d="M171.5,193.6s-12.1.6-18.9,14.2c-6.8,13.6,1.2,22.7,3.8,28,2.7,5.3,10,27.1,12.4,33.6s7.1,14.2,15.4,24.8c8.3,10.6,25.7,33.3,25.7,33.3l4.7,8.3s8,9.2,8.8,9.4,6.2,7.1,8.3,2.9,0-18.9,0-18.9c0,0,3.2,6.5,4.4,5s-.3-4.7-1.5-8.3-12.1-10.3-14.5-10.6-5.3-3.2-8.8-10.3-6.2-19.4-11.8-26.9c-5.6-7.4-13-18.3-13-18.3,0,0-8.3-29.5-8.3-30.7.6-5.5-.2-11.1-2.3-16.2"/>
    <path class="st0" d="M220.2,315.5c-2.4-.3-5.3-3.2-8.8-10.3s-6.2-19.4-11.8-26.9c-5.6-7.4-13-18.3-13-18.3,0,0-5.6-20-7.6-27.7-10.9-1.5-18,.7-22.6,3.4h0c2.7,5.3,10,27.1,12.4,33.6s7.1,14.2,15.4,24.8,25.7,33.3,25.7,33.3l4.7,8.3s8,9.2,8.8,9.4,6.2,7.1,8.3,2.9,0-18.9,0-18.9c0,0,3.2,6.5,4.4,5s-.3-4.7-1.5-8.3-12.1-10.3-14.5-10.6Z"/>
    <path class="st1" d="M200.8,431.7c.6-7.3,2-22,2.9-27.7,1.2-7.7,3.5-23.3,3.5-23.3l6,51h40.9c1.5-11.1,5.2-41,5.9-61.9.4-10.9-2.9-26.7-6.8-41.8-34.6,7.6-73.8,2.1-94.2-1.9-1.7,5.1-3.4,10.4-4.9,15.9-5.6,20.1-1.8,74.3-.6,89.7h47.3Z"/>
    <path class="st0" d="M190.5,143.1s-2.6-1.2-2.6,4.1,5.9,8.8,5.9,8.8l-3.2-12.9Z"/>
    <path class="st0" d="M220.8,114s-9.4,13.3-17.7,18.6c-4.3,2.8-8.7,5.4-13.3,7.7,0,0,4.1,17.1,5.9,22.7s7.1,15.4,17.7,16c10.6.6,15.4-10.6,17.4-16,1.2-2.7,1.8-5.7,1.9-8.7,3-1.9,5.1-5,5.6-8.6.6-5.6-.9-5.3-.9-5.3,0,0-1.6,1.8-5.1-.9-2.9-2.1-12.4-17.5-11.5-25.5Z"/>
    <path class="st3" d="M198.3,147.5s4.2-3,10.3,0"/>
    <path class="st3" d="M217.1,148.1s5-4.4,10.3-.8"/>
    <path class="st3" d="M197.5,140.9s2.2-4.1,9.7-2.2"/>
    <path class="st3" d="M217.1,138.9c3.5-2.6,8.4-2.1,11.3,1.1"/>
    <path class="st3" d="M216.3,157.2s-4.4,3-6.4,0"/>
    <path class="st3" d="M208.3,163.6s5.5,2.2,8.3-.3"/>
    <path class="st5" d="M114.7,322.8s13,28.8,16,34.6,6.7,22.3,7.1,32.1,0,11.8-2.2,11.6-3.1-12.5-3.1-14.5v-3.1s-1.1,11.6-2.9,13.8-4.2,4.7-4.5,3.4.4-3.6,1.3-6.9c.5-2.6.7-5.2.5-7.8,0,0-1.3,6.2-4.5,8.5s-6.5,3.1-5.4,1.3,4-3.8,4.7-6c.5-2,.7-4.1.7-6.2,0,0-4.2,6.9-6,8s-1.8-1.3-.7-2.4,3.6-8.7,3.6-8.7c0,0-.7-.5-3.8-7.4-3.1-6.9-4.9-19-5.8-23.6s-2.7-10.9-2.7-10.9l-17.2-28.8s-1.3-6.9,5.1-8.1c6.5-1.2,19.6,21.2,19.6,21.2Z"/>
    <g class="st14">
      <path class="st8" d="M114.7,322.8s13,28.8,16,34.6,6.7,22.3,7.1,32.1,0,11.8-2.2,11.6-3.1-12.5-3.1-14.5v-3.1s-1.1,11.6-2.9,13.8-4.2,4.7-4.5,3.4.4-3.6,1.3-6.9c.5-2.6.7-5.2.5-7.8,0,0-1.3,6.2-4.5,8.5s-6.5,3.1-5.4,1.3,4-3.8,4.7-6c.5-2,.7-4.1.7-6.2,0,0-4.2,6.9-6,8s-1.8-1.3-.7-2.4,3.6-8.7,3.6-8.7c0,0-.7-.5-3.8-7.4-3.1-6.9-4.9-19-5.8-23.6s-2.7-10.9-2.7-10.9l-17.2-28.8s-1.3-6.9,5.1-8.1c6.5-1.2,19.6,21.2,19.6,21.2Z"/>
    </g>
    <path class="st3" d="M114.7,322.8s13,28.8,16,34.6,6.7,22.3,7.1,32.1,0,11.8-2.2,11.6-3.1-12.5-3.1-14.5v-3.1s-1.1,11.6-2.9,13.8-4.2,4.7-4.5,3.4.4-3.6,1.3-6.9c.5-2.6.7-5.2.5-7.8,0,0-1.3,6.2-4.5,8.5s-6.5,3.1-5.4,1.3,4-3.8,4.7-6c.5-2,.7-4.1.7-6.2,0,0-4.2,6.9-6,8s-1.8-1.3-.7-2.4,3.6-8.7,3.6-8.7c0,0-.7-.5-3.8-7.4-3.1-6.9-4.9-19-5.8-23.6s-2.7-10.9-2.7-10.9l-17.2-28.8s-1.3-6.9,5.1-8.1c6.5-1.2,19.6,21.2,19.6,21.2Z"/>
    <path class="st5" d="M130.8,365.8s2.2,10.9,2,15.8.9,7.4-.7,7.4-2-1.1-3.6-6c-1-3.6-1.7-7.4-2-11.1,0,0-5.6,0-7.6-8.3"/>
    <g class="st10">
      <path class="st8" d="M130.8,365.8s2.2,10.9,2,15.8.9,7.4-.7,7.4-2-1.1-3.6-6c-1-3.6-1.7-7.4-2-11.1,0,0-5.6,0-7.6-8.3"/>
    </g>
    <path class="st3" d="M130.8,365.8s2.2,10.9,2,15.8.9,7.4-.7,7.4-2-1.1-3.6-6c-1-3.6-1.7-7.4-2-11.1,0,0-5.6,0-7.6-8.3"/>
    <path class="st0" d="M31.3,431.7h82.1c.4-15.4,3.1-115.6,3.9-120.1.9-4.9,5.3-50.7,5.7-68.7s-7.5-44.1-7.5-45.8-1.3-12.8-13.7-22-22-9.2-24.7-7.9c0,0-9.7,6.6-25.1,22.9-15.4,16.3-20.7,29.5-20.7,54.6,0,15.2,1.3,30.4,4,45.3,0,0-4.9,78.4-4.9,80.2s.7,51.1.9,61.6Z"/>
    <path class="st7" d="M68.5,254.4c1.7,0,3.5-.1,5.2-.3,18.9-2.1,35.3-21.4,46.1-38-.5-2.4-1-4.7-1.5-6.9-10.2,16.7-26.7,38.1-45.2,40.1-25.6,2.8-37.2-17.4-40.5-23.9-.5,2.5-.8,5.1-1,7.9,5.7,8.7,17.3,21.2,36.8,21.2Z"/>
    <path class="st7" d="M62.4,215.4l4.7,1.2c4.8-17.6,14.4-33.6,27.5-46.3-1.6-.8-3.2-1.5-4.9-2.2-13.1,13.1-22.6,29.3-27.4,47.2Z"/>
    <path class="st7" d="M67,238.6c1.1-.6,24-12.5,48.3-43.7-.4-2-1-3.9-1.8-5.7-24.4,32.4-48.4,44.9-48.7,45.1l2.2,4.4Z"/>
    <path class="st7" d="M43,221.1l4.9-.7c0-.1-1.4-11.6,9.9-36.3-1.8,1.8-3.7,3.7-5.7,5.9-1.3,1.4-2.5,2.7-3.6,4-6.6,18-5.5,26.6-5.4,27.1Z"/>
    <path class="st7" d="M83.1,293.1c-27.9,3.6-42.1-2.2-48.5-6.7.4,2.4.6,3.7.6,3.7,0,0,0,.9-.1,2.4,6.2,3.4,16.2,6.7,31.5,6.7,5.7,0,11.5-.4,17.1-1.2,12.9-1.7,25.2-6,36.3-12.8.2-2,.4-4.1.6-6.3-11.2,7.6-24,12.5-37.5,14.3Z"/>
    <path class="st7" d="M81.7,323c12.8-3.3,25.1-8.6,36.2-15.8.2-1.7.4-3.9.7-6.3-11.6,8-24.4,13.9-38,17.4-18.8,4.6-37.1-.5-46.7-4.2,0,1.6-.2,3.4-.3,5.1,10,3.8,20.6,5.7,31.2,5.8,5.7,0,11.4-.7,16.9-2Z"/>
    <path class="st7" d="M31.3,354.7c-.1,1.7-.2,3.4-.3,4.9,12.5,3,25.3,4.6,38.2,4.6,15.8.2,31.6-2.7,46.3-8.4,0-1.8.1-3.6.2-5.3-32.5,13.7-67.3,8.3-84.4,4.2Z"/>
    <path class="st7" d="M85.2,338.7c-17.4,4.2-35.7,3.7-52.8-1.6,0,1.7-.2,3.4-.3,5.1,9.4,2.9,19.3,4.3,29.2,4.3,8.5,0,16.9-1,25.1-2.9,10.4-2.4,20.5-6.2,30-11.2,0-2,.1-3.9.2-5.7-9.8,5.5-20.4,9.5-31.4,12.1Z"/>
    <path class="st7" d="M71.6,270.3c-19.9,1-32.8-6.3-39.9-12.4.1,2.2.3,4.4.4,6.5,10.5,7.3,23,11.2,35.8,10.9,1.3,0,2.6,0,3.9,0,19.5-1,36.8-9.5,50.8-24.7.2-2.8.3-5.4.3-7.6v-.3c-11.4,14.2-28,26.5-51.4,27.7Z"/>
    <path class="st2" d="M104.7,177.3c-.9-.8-1.8-1.6-2.9-2.4-12.3-9.2-22-9.2-24.7-7.9-5.1,3.8-10,7.9-14.6,12.3-.9,4,0,8.3,2.7,11.5,8.4,10.6,35.6,51.1,42.8,42.3s5.3-33.1-2.7-54.2c-.2-.6-.5-1.1-.6-1.6Z"/>
    <path class="st0" d="M79,223.9s23.8,50.7,28.6,58.6c2.1,3.8,4.6,7.3,7.5,10.6,0,0,21.1,7.1,39.1,13.7,18.1,6.6,49.4,15.3,56,17.2s17.6,1.8,19.4,1.8,22.9,4.9,24.3,5.7-.4,2.6-3.5,3.5-13.2,1.7-18.1,3.5-8.8,1.3-15.9-.4c-5.6-1.7-10.9-4.1-15.9-7,0,0-57.8-4-71.5-5.7s-29.2-3.5-35.3-10.6c-12.3-13.8-23.6-28.5-33.8-43.8-8.3-12.5-23.5-30.1-17.7-46.1"/>
    <path class="st5" d="M229.6,325.7c-1.8,0-12.8,0-19.4-1.8-6.7-1.8-38-10.5-56.1-17.2-18.1-6.6-39.1-13.7-39.1-13.7-2.9-3.3-5.4-6.8-7.5-10.6-2-3.2-7.2-13.8-12.7-25.1-17.6,4.6-26.4,13-30.8,19.4,9.2,13.2,19.1,25.8,29.8,37.8,6.2,7,21.6,8.8,35.3,10.6s71.4,5.7,71.4,5.7c5,3,10.3,5.3,15.9,7,7,1.8,11,2.2,15.9.4s15-2.6,18.1-3.5,4.9-2.7,3.5-3.5-22.4-5.7-24.2-5.7Z"/>
    <g class="st13">
      <path class="st8" d="M229.6,325.7c-1.8,0-12.8,0-19.4-1.8-6.7-1.8-38-10.5-56.1-17.2-18.1-6.6-39.1-13.7-39.1-13.7-2.9-3.3-5.4-6.8-7.5-10.6-2-3.2-7.2-13.8-12.7-25.1-17.6,4.6-26.4,13-30.8,19.4,9.2,13.2,19.1,25.8,29.8,37.8,6.2,7,21.6,8.8,35.3,10.6s71.4,5.7,71.4,5.7c5,3,10.3,5.3,15.9,7,7,1.8,11,2.2,15.9.4s15-2.6,18.1-3.5,4.9-2.7,3.5-3.5-22.4-5.7-24.2-5.7Z"/>
    </g>
    <path class="st3" d="M229.6,325.7c-1.8,0-12.8,0-19.4-1.8-6.7-1.8-38-10.5-56.1-17.2-18.1-6.6-39.1-13.7-39.1-13.7-2.9-3.3-5.4-6.8-7.5-10.6-2-3.2-7.2-13.8-12.7-25.1-17.6,4.6-26.4,13-30.8,19.4,9.2,13.2,19.1,25.8,29.8,37.8,6.2,7,21.6,8.8,35.3,10.6s71.4,5.7,71.4,5.7c5,3,10.3,5.3,15.9,7,7,1.8,11,2.2,15.9.4s15-2.6,18.1-3.5,4.9-2.7,3.5-3.5-22.4-5.7-24.2-5.7Z"/>
    <path class="st2" d="M113.3,431.7c.2-7.6,1-36.5,1.8-64.1-11.7,4.6-23.9,7.5-36.4,8.7-25.9,3-40.8-3.2-48.2-8.1,0,1.1,0,1.8,0,1.9,0,1.6.7,51,.8,61.5h82.1Z"/>
    <path class="st3" d="M92.7,428c-4-15.2,5.7-34.7-8.3-44.8"/>
    <line class="st3" x1="92.7" y1="393" x2="110.7" y2="375.6"/>
    <path class="st3" d="M47.5,393.1l-.5,34.9"/>
    <line class="st3" x1="47.6" y1="380.5" x2="47.5" y2="386.9"/>
    <path class="st5" d="M119.9,96c7.2,1.9,13.5,6.1,18,12,3.1,3.9,5.1,8.5,6,13.4,2.2,13.1-5.2,17.2-2.9,23.1s4.8,9.1,2.9,11.9-7.9,3.3-8.8,3.6-2.9,11.2-6.7,16-17.2-.7-17.2-.7c0,0-5.5,9.3-7.1,12.4s1.6,21.7-.7,30c-2.3,8.3-7.9-.7-18.3-13.8-10.5-13.1-15.3-23.8-14.8-27.4s8.8-11.9,10.3-15,2.1-4.5,1.4-7.4-9.1-14.6-9.1-29.6,11.9-29.3,27.6-30.5c6.5-.4,13,.3,19.3,2Z"/>
    <g class="st11">
      <path class="st8" d="M119.9,96c7.2,1.9,13.5,6.1,18,12,3.1,3.9,5.1,8.5,6,13.4,2.2,13.1-5.2,17.2-2.9,23.1s4.8,9.1,2.9,11.9-7.9,3.3-8.8,3.6-2.9,11.2-6.7,16-17.2-.7-17.2-.7c0,0-5.5,9.3-7.1,12.4s1.6,21.7-.7,30c-2.3,8.3-7.9-.7-18.3-13.8-10.5-13.1-15.3-23.8-14.8-27.4s8.8-11.9,10.3-15,2.1-4.5,1.4-7.4-9.1-14.6-9.1-29.6,11.9-29.3,27.6-30.5c6.5-.4,13,.3,19.3,2Z"/>
    </g>
    <path class="st3" d="M119.9,96c7.2,1.9,13.5,6.1,18,12,3.1,3.9,5.1,8.5,6,13.4,2.2,13.1-5.2,17.2-2.9,23.1s4.8,9.1,2.9,11.9-7.9,3.3-8.8,3.6-2.9,11.2-6.7,16-17.2-.7-17.2-.7c0,0-5.5,9.3-7.1,12.4s1.6,21.7-.7,30c-2.3,8.3-7.9-.7-18.3-13.8-10.5-13.1-15.3-23.8-14.8-27.4s8.8-11.9,10.3-15,2.1-4.5,1.4-7.4-9.1-14.6-9.1-29.6,11.9-29.3,27.6-30.5c6.5-.4,13,.3,19.3,2Z"/>
    <path class="st1" d="M122.8,106.8c5.7-2.8,9.8-2.7,12.5-1.9-4.2-4.3-9.5-7.4-15.3-8.9-6.3-1.8-12.8-2.4-19.3-2-15.7,1.2-27.6,15.5-27.6,30.5s8.3,26.7,9.1,29.6c.3.9.3,1.9.2,2.9,11.3,2.3,15-3.4,15-3.4-2.7.3-5.3-.4-7.4-2.1-3.4-2.9-3.4-13.8.7-18.8s8.1,1.9,8.1,6,1.9,7.4,3.8,6.9,1.4-5,2.1-7.9,9.1-7.1,11-9.5-1-4.5-4-8.1-.5-7.4,11.2-13.1Z"/>
    <path class="st3" d="M96.8,154.2s0,6.7,4.1,11"/>
    <path class="st3" d="M133.9,142.2c-2-.9-4.2-1.2-6.4-1"/>
    <path class="st3" d="M137.4,136.4s-3.5-6.1-10.2-1.3"/>
    <path class="st3" d="M129.2,163.3c-3,.3-5.8-1.6-6.7-4.5"/>
    <path class="st7" d="M82.9,232.4l-3-6.5c-19.6.3-31,7.6-37.5,14.6.7,2.3,1.6,4.6,2.6,6.7,5.1-6.6,16-15.3,37.9-14.8Z"/>
    <path class="st7" d="M89.7,246.7l-3-6.4c-18.2,1-30.4,7.7-37.9,13.8,1.1,1.9,2.3,3.7,3.6,5.5,6.9-5.8,18.9-12.6,37.4-13Z"/>
    <path class="st0" d="M300.5,289.9c2,6.1,3.4,27.8,3.4,39.4s-6.2,79.6-8.2,102.4h92c1.1-22.3,4.4-89.2,4.4-97.7s-3.4-51.9,1-66.5,9.5-52.9,1.6-64.8-37.2-18.7-46.1-21.7-22.1-4.7-28.5-1.6c0,0-17.6,9.8-28.5,20-10.9,10.2-15.6,25.8-13.6,38.3,2,12.6,20.4,46,22.5,52.1Z"/>
    <path class="st7" d="M380.5,192.1c-4-1.8-8-3.5-12.2-4.9-15,38.2-38.5,72.5-68.9,100.1.5,1.1.9,2,1.1,2.6,1,4,1.7,8,2,12.1,34.6-29.7,61.4-67.5,78-110Z"/>
    <path class="st7" d="M398.4,236.3c.8-8.1.6-16.2-.5-24.3-18.9,31.9-51.6,80.6-94.1,118.7-.1,3.4-.5,9.9-1.2,18.2,41.4-34.2,74.1-78.5,95.7-112.6Z"/>
    <path class="st1" d="M387.8,431.7c.8-15.9,2.7-54.3,3.7-78.2-44.8,8.6-76.3.4-88.8-4-1.9,25.2-5.5,65.8-6.9,82.2h92Z"/>
    <ellipse class="st2" cx="331.7" cy="198.3" rx="22.3" ry="21.5"/>
    <path class="st0" d="M311.4,171.2s3.7,13.2,3.7,21.1,8.5,25.8,22.4,17.7,6.8-26.8,4.4-32.6c-1.7-4.4-3-9-4.1-13.6,0,0-4.4,8.1-13,8.5-4.5.3-9.1,0-13.5-1Z"/>
    <path class="st1" d="M288.4,123.1s-2.3,5.8.6,10.5,6.9,11.1,6.9,11.1l-.6-25.7s-5.8-4.7-6.9,4.1Z"/>
    <path class="st0" d="M296,138.9s-4.7,1.8-2.3,9.3c2.3,7.6,5.8,5.3,5.8,5.3l-3.5-14.6Z"/>
    <path class="st0" d="M291.7,125.7s4.1,21.1,6.5,31.5c2.4,10.5,15.3,20,22.1,22.1s15.6-5.4,17.7-9.8,3-14.3,3-14.3c0,0,7.5-3.1,8.1-10.9.6-7.8-1.4-10.2-5.4-11.2l-3.1-1.4s1.7-12.6-2.7-20.4-20,2.4-28.2,4.7-19,1.7-18,9.5Z"/>
    <path class="st3" d="M311.4,141s-1.6,12.2.7,13.2,6.8-1.4,7.8-1.7"/>
    <path class="st3" d="M317.8,161.8s9.5,1.4,13.2-9.5"/>
    <path class="st3" d="M299.8,138.3c1.5-2.4,4.3-3.7,7.1-3.4"/>
    <path class="st3" d="M316.1,133.2s6.8-3.4,10.9.3"/>
    <ellipse class="st7" cx="305.6" cy="143.7" rx="1.7" ry="3.4" transform="translate(-20.1 54.5) rotate(-9.9)"/>
    <ellipse class="st7" cx="320.5" cy="140.7" rx="1.7" ry="3.4" transform="translate(-19.4 57) rotate(-9.9)"/>
    <path class="st1" d="M330.4,116.6c-9,4.2-18.5,7.4-28.2,9.6-14.9,3-21.7-.3-21.1-7.8.7-7.5,20-23.8,37.7-23.8s23.8,8.1,24.8,16.6c.6,7.3.6,14.7,0,22.1l-3.1,4.4s.8-3.4-4.1-6.2-8.5-7.8-6.1-14.9Z"/>
    <path class="st1" d="M424.8,140.8c3.3,2.5-.6,13.2,10.4,21.7,25.2,19.6,39.8,32.9,42.5,62,2.9,31.7-14.1,44.1-8.8,54.7s12.3,22.9,1.2,32.4c-11.2,9.5-29.4,17.6-44.6-4.7-15.3-22.3-23.5-71.7-30-98.8-6.5-27.1-17-40-15.3-51.7,1.7-11.3,11-19.4,22-21.4,8.1-1.4,16.3.7,22.7,5.9Z"/>
    <path class="st0" d="M394.5,253.6l-47.1,34.4s-75.4,26.9-79.9,28.3-25.6,5.1-30,7.5c-4.4,2.4-13,18.1-14.3,21.8-.7,1.3-.2,3,1.1,3.8.8.5,1.8.5,2.7,0,1-1,10.9-10.6,14-10.9,3.1-.3,5.8-.7,5.8-.7,0,0-7.9,6.8-8.2,8.9s1.4,1.4,3.4.3,9.9-3.8,13-9.2,5.8-8.5,10.9-10.6c5.1-2,71.9-16.5,83.9-18.6s54.9-27.9,57-28.2-5.7-26.9-12.2-26.9Z"/>
    <path class="st9" d="M385.3,297.7c.4,1.3-.8,19-1.7,49.9-.6,23.7-6.3,65.8-8.9,84.1h90c.6-18.6,1.5-61-3.8-78.6-6.8-22.8-14.4-27.5-16.9-37.6s-6.3-66-12.7-87.1c-6.3-21.2-25.4-33.8-28.3-38.5-3-4.6-12.3-31.7-12.3-31.7l-16.1,13.5s11.8,19,13.5,25-11.4,19.9-18.2,34.3c-6.8,14.4-8.1,25.8-2.1,34.7s16.9,30.9,17.3,32.2Z"/>
    <g class="st12">
      <g>
        <path class="st5" d="M399,384.6l14.8,3.2,14.8-3.2,14.8,3.2,14.8-3.2,6.8,1.5v-3.3c-.1,0-6.8-1.5-6.8-1.5l-14.8,3.2-14.8-3.2-14.8,3.2-14.8-3.2-14.7,3.2-3.5-.8c-.1,1.1-.2,2.2-.4,3.2l3.9.9,14.7-3.2Z"/>
        <path class="st5" d="M415.3,273.8l-14.8,3.2-14.8-3.2-11.5,2.5,1.6,3,9.9-2.2,14.8,3.2,14.8-3.2,14.8,3.2,9.3-2.1c-.1-1.1-.2-2.2-.4-3.2l-9,2-14.8-3.2Z"/>
        <path class="st5" d="M399,409.3l14.8,3.2,14.8-3.2,14.8,3.2,14.8-3.2,7.1,1.6v-3.2l-7.2-1.6-14.8,3.2-14.8-3.2-14.8,3.2-14.8-3.2-14.7,3.2-6.4-1.4c-.1,1.1-.3,2.2-.4,3.2l6.8,1.5,14.8-3.3Z"/>
        <path class="st5" d="M465.1,419.9l-7-1.5-14.8,3.2-14.8-3.2-14.8,3.2-14.8-3.2-14.7,3.2-8-1.7c-.1,1.1-.3,2.2-.4,3.2l8.4,1.8,14.7-3.2,14.8,3.2,14.8-3.2,14.8,3.2,14.8-3.2,6.9,1.5c0-1.1,0-2.2,0-3.3Z"/>
        <path class="st5" d="M365.7,242.1l5.3,1.2,14.8-3.2,14.8,3.2,14.8-3.2,14.8,3.2,4.4-1c-.2-1.1-.4-2.2-.6-3.2l-3.8.8-14.8-3.2-14.8,3.2-14.8-3.2-14.8,3.2-4.4-1c-.4,1.1-.7,2.1-1,3.2Z"/>
        <path class="st5" d="M415.3,249.1l-14.8,3.2-14.8-3.2-14.8,3.2-6.9-1.5c0,1.1,0,2.2,0,3.3l6.9,1.5,14.8-3.2,14.8,3.2,14.8-3.2,14.8,3.2,6.3-1.4c-.2-1.1-.3-2.2-.5-3.2l-5.8,1.3-14.8-3.2Z"/>
        <path class="st5" d="M415.3,261.4l-14.8,3.2-14.8-3.2-14.8,3.2-4.2-.9c.3.6.7,1.2,1.1,1.8s.9,1.3,1.3,2.1l1.8.4,14.8-3.2,14.8,3.2,14.8-3.2,14.8,3.2,7.9-1.7c-.1-1.1-.3-2.2-.4-3.2l-7.5,1.6-14.8-3.2Z"/>
        <path class="st5" d="M399,397l14.8,3.2,14.8-3.2,14.8,3.2,14.8-3.2,7.1,1.6v-3.3l-7.1-1.6-14.8,3.2-14.8-3.2-14.8,3.2-14.8-3.2-14.7,3.2-4.9-1.1-.4,3.2,5.3,1.2,14.6-3.2Z"/>
      </g>
    </g>
    <path class="st3" d="M385.3,297.7c.4,1.3-.8,19-1.7,49.9-.6,23.7-6.3,65.8-8.9,84.1h90c.6-18.6,1.5-61-3.8-78.6-6.8-22.8-14.4-27.5-16.9-37.6s-6.3-66-12.7-87.1c-6.3-21.2-25.4-33.8-28.3-38.5-3-4.6-12.3-31.7-12.3-31.7l-16.1,13.5s11.8,19,13.5,25-11.4,19.9-18.2,34.3c-6.8,14.4-8.1,25.8-2.1,34.7s16.9,30.9,17.3,32.2Z"/>
    <path class="st3" d="M374.7,270.4s5.4,10.9,23.6,6.7"/>
    <path class="st3" d="M424.3,340.6s-27.2,33.3-39.4,59.9"/>
    <path class="st3" d="M395.3,367.8s-11.5,21.2-14.6,34.5"/>
    <path class="st0" d="M379.9,227.6c8.8-4.9,20-25.9,24.9-29.8l3.3-2.7c-1.9-1.6-3.6-3.4-5.1-5.3-3-4.6-12.3-31.7-12.3-31.7l-16.1,13.5s11.8,19,13.5,25c1.5,5.2-8.6,16.7-15.6,29.3.8,2.3,2.8,4.2,7.2,1.7Z"/>
    <path class="st0" d="M360.5,125.5c-1.9,4.4-2.8,9.2-2.8,14.1.3,4.3,1.2,7.7-.5,11.9-1,2.4-4.4,5.5-3.9,8.3.4,2.5,6.8,3.4,6.8,3.4,0,0,6.3,19.9,9.7,20.3s11-1.6,20.7-9.7c9.7-8.1-2.1-37.2-10.6-44.8-8.5-7.6-15.2-8.5-19.4-3.4Z"/>
    <ellipse class="st7" cx="363.4" cy="148.9" rx="1.1" ry="3.1"/>
    <path class="st3" d="M360.5,141.8s1.1-4.4,5.5-1.1"/>
    <path class="st3" d="M362.7,167.4s2.9.7,6.2-3.2"/>
    <path class="st1" d="M369.8,103.1s-15.7.4-18.2,10.6c-2.5,10.1,8.9,19,16.9,23.3s15.2,11,15.2,18.2.4,15.7,6.3,23.3c5.9,7.6,19.4,14,30,13.5s-.8-25.3,5.1-43.1-1.6-35.5-13.5-43.1c-11.9-7.6-41.9-2.6-41.9-2.6Z"/>
    <path class="st4" d="M465.4,256.7c-.1,2.2-.5,4.4-1,6.6"/>
    <path class="st4" d="M366.2,129.4c2.9,4.9,8.4,10,18.8,13,22.7,6.5,31.3,22.1,31.3,35.6s1.1,23.2,22.7,34c12.9,6.4,22.2,18.3,25.4,32.4"/>
    <path class="st4" d="M362.9,118.6c0,.9,0,1.9.3,2.8"/>
    <path class="st4" d="M393.1,118.6s27,13.5,26.4,31.9c-.6,18.3,1.1,35.6,17.8,45.9,16.7,10.3,34,16.7,40,37.2"/>
    <path class="st0" d="M408.2,216.8s-7.2,2.7-10.9,16.7,11.6,38.6,14,49.5,4.8,27.6,4.8,27.6c0,0-53.6,43.7-61.4,50.5-7.8,6.8-12,11.3-12,11.3,0,0-19.4,17.1-21.2,20.5s-6.5,21.2-4.8,21.8,4.8-6.8,4.8-8.2,3.4-8.9,3.4-8.9c0,0-2.7,17.4-2.7,18.3s2.7,0,3.1-1.4,4.1-15.7,4.1-15.7c0,0-2,16-.7,17.8s3.8-10.2,3.8-10.2l2.7-9.6s-.7,16.7.7,17.4,4.4-16.4,4.4-16.4c0,0,6.1-12.3,8.5-16.4,1.4-2.2,2.4-4.6,3.1-7.2,0,0,31.7-17.4,51.5-27,19.8-9.6,36.5-27.3,38.6-30.4s-2.4-46.1-5.8-64.5c-3.4-18.4-10.6-40.6-28-35.8Z"/>
    <path class="st0" d="M297.3,194.8s-12.2,8.3-22,16.2c-9.8,7.9-8.3,23.5-8.3,26.9s-.5,19-.5,19l-7.3,15.6s-11.2,10.3-13.7,12.7-16.6,30.3-16.6,30.3l-3.4,4.9,18.6,2.4c6.9-7.7,14.6-14.8,22.9-21.1,12.2-8.8,22.4-33.1,22.9-36.1,2.1-8.2,3.5-16.5,4.4-24.9"/>
    <path class="st0" d="M291.1,260.4c-8.2-13.5-19.4-11.7-24.4-10-.1,3.6-.2,6.5-.2,6.5l-7.3,15.6s-11.2,10.3-13.7,12.7c-2.4,2.4-16.6,30.3-16.6,30.3l-3.4,4.9,18.7,2.5c6.9-7.7,14.6-14.8,22.9-21.1,12.2-8.8,22.4-33.1,22.9-36.1.2-1,.6-2.8,1.1-5.2Z"/>
    <path class="st0" d="M235.9,309.1s-12.1,9.9-14.6,13.1-4.4,21.6-3.4,23,7.8,5,10.7,1.8c2.9-3.2,13.6-18.4,13.6-18.4,0,0-8.1,10.9-2.3,10.3,5.8-.6,9.1-9.5,12.5-13.6s2.9-4.5,0-10.3l-2.9-5.8"/>
    <path class="st3" d="M218,345.1s6.2-21.1,8.6-22.7"/>
    <path class="st3" d="M220.9,346.7s7.2-19.8,10.9-23.9"/>
    <path class="st3" d="M224.7,348.1s7.8-19.4,12.8-24.1"/>
    <path class="st0" d="M242.2,328.6s4.1-3.7,4.8-5.9"/>
  </g>
</svg>