<?xml version="1.0" encoding="UTF-8"?>
<svg id="Layer_2" xmlns="http://www.w3.org/2000/svg" version="1.1" viewBox="0 0 295.4 207">
  <!-- Generator: Adobe Illustrator 29.6.1, SVG Export Plug-In . SVG Version: 2.1.1 Build 9)  -->
  <defs>
    <style>
      .st0 {
        fill: #a57c52;
      }

      .st1 {
        fill: #ffc078;
      }

      .st2 {
        isolation: isolate;
      }

      .st3 {
        fill: #a0733f;
      }
    </style>
  </defs>
  <g class="st2">
    <g class="st2">
      <path class="st1" d="M31.9,184.5v6.9H1.6v-.7c.6-7.3,8-15.7,12.6-20.9,3.4-3.9,5.8-6.7,7.4-9.4-1.1.2-2.4.3-4.5.3H3.7v-6.9h28v1.2c-.7,6.8-6.8,14.3-11.8,19.6-4,4.3-6.6,7.4-8.4,10.4,1.6-.5,3.8-.5,4.9-.5h15.5Z"/>
    </g>
    <g class="st2">
      <path class="st1" d="M35,177.2c0-9.1,5.1-14.9,15.3-14.9s15.3,5.8,15.3,14.9-5.1,14.9-15.3,14.9-15.3-5.8-15.3-14.9ZM57.8,177.2c0-5.5-2.2-8.4-7.6-8.4s-7.6,2.9-7.6,8.4,2.2,8.3,7.6,8.3,7.6-2.9,7.6-8.3Z"/>
      <path class="st1" d="M68.6,162.9h6.2l.7,4.8c1.8-3.5,4.9-5.4,9.2-5.4,6.5,0,10.5,4,10.5,12.2v16.9h-7.4v-16.9c0-3.8-1.9-5.6-5.4-5.6s-6.4,2.2-6.4,7.3v15.3h-7.4v-28.6Z"/>
      <path class="st1" d="M98.1,177.2c0-8.8,4.9-14.9,14.3-14.9s13.7,6,13.7,15,0,1.8-.2,2.9h-20.2c.6,4.2,4,5.9,8.4,5.9s5.6-.6,8.7-2l2.2,5.3c-3.2,1.9-6.7,2.7-11.6,2.7-10.2,0-15.3-6-15.3-14.9ZM118.9,175.1c0-4.4-2.2-6.9-6.5-6.9s-6.7,2.6-6.7,6.9h13.2Z"/>
    </g>
    <g class="st2">
      <path class="st0" d="M129.7,153.9h26.6v7h-19v8.1h17.4v6.8h-17.4v15.7h-7.6v-37.5Z"/>
    </g>
    <g class="st2">
      <path class="st0" d="M161.3,179.4v-16.6h7.4v16.5c0,4.2,2.1,6.1,5.6,6.1s5.7-1.9,5.7-6.1v-16.5h7.4v16.6c0,7.8-4.9,12.6-13,12.6s-12.9-4.8-12.9-12.6Z"/>
    </g>
    <g class="st2">
      <path class="st0" d="M191.3,162.9h6.2l.7,4.8c1.8-3.5,4.9-5.4,9.2-5.4,6.5,0,10.5,4,10.5,12.2v16.9h-7.4v-16.9c0-3.8-1.9-5.6-5.4-5.6s-6.4,2.2-6.4,7.3v15.3h-7.4v-28.6Z"/>
      <path class="st0" d="M222.4,162.9h6.2l.7,4.8c1.8-3.5,4.9-5.4,9.2-5.4,6.5,0,10.5,4,10.5,12.2v16.9h-7.4v-16.9c0-3.8-1.9-5.6-5.4-5.6s-6.4,2.2-6.4,7.3v15.3h-7.4v-28.6Z"/>
      <path class="st0" d="M251.9,177.2c0-8.8,4.9-14.9,14.3-14.9s13.7,6,13.7,15,0,1.8-.2,2.9h-20.2c.6,4.2,4,5.9,8.4,5.9s5.6-.6,8.7-2l2.2,5.3c-3.2,1.9-6.7,2.7-11.6,2.7-10.2,0-15.3-6-15.3-14.9ZM272.7,175.1c0-4.4-2.2-6.9-6.5-6.9s-6.7,2.6-6.7,6.9h13.2Z"/>
      <path class="st0" d="M283,184.2v-29.2l7.4-1.7v29.4c0,2.2.9,2.8,2.3,2.8s1.7-.4,2.8-1.3v5.9c-1,1.2-3.3,2-5.4,2-3.7,0-7.1-2.2-7.1-7.9Z"/>
    </g>
  </g>
  <g>
    <path class="st3" d="M187.6,74.2l-29.3,16.3-30.1-8.5,48.6-27.1c8.4-4.7,11.5-15.4,6.8-23.9-4.7-8.4-15.4-11.5-23.9-6.8l-79.2,44.2h-.1v-25.2L149,5c3.9-2.2,8.1-3.7,12.3-4.4,4.6-.8,9.3-.8,13.9,0,11.3,2,21.7,8.9,27.7,19.7,10.6,19.1,3.8,43.3-15.3,53.9h0Z"/>
    <path class="st1" d="M215,67.4v25.2l-68.6,38.3c-3.9,2.2-8.1,3.6-12.3,4.4-4.7.8-9.4.8-14,0-11.3-2-21.7-8.9-27.7-19.7-10.7-19.1-3.8-43.3,15.3-53.9l29.3-16.4,30.1,8.5-48.6,27.1c-8.4,4.7-11.5,15.4-6.8,23.9,4.7,8.4,15.4,11.5,23.9,6.8l79.2-44.2h.1s0,0,0,0Z"/>
  </g>
</svg>