<?xml version="1.0" encoding="UTF-8"?>
<svg id="Layer_2" data-name="Layer 2" xmlns="http://www.w3.org/2000/svg" viewBox="0 0 1967.6 1376.2">
  <defs>
    <style>
      .cls-1 {
        fill: #febe56;
      }

      .cls-2 {
        fill: #221d51;
      }

      .cls-3 {
        fill: #ffd05d;
        opacity: .25;
      }

      .cls-3, .cls-4, .cls-5, .cls-6, .cls-7 {
        isolation: isolate;
      }

      .cls-8, .cls-5, .cls-6, .cls-7 {
        fill: #2993f2;
      }

      .cls-9 {
        fill: #ffbe55;
      }

      .cls-4 {
        fill: #2c93f7;
      }

      .cls-4, .cls-6 {
        opacity: .3;
      }

      .cls-10 {
        fill: #094a73;
      }

      .cls-11 {
        fill: #fff;
      }

      .cls-12 {
        fill: #eceff1;
      }

      .cls-5 {
        opacity: .24;
      }

      .cls-7 {
        opacity: .35;
      }

      .cls-13 {
        opacity: .34;
      }

      .cls-14 {
        opacity: .58;
      }

      .cls-15 {
        opacity: .33;
      }

      .cls-16 {
        fill: #cce9ff;
      }

      .cls-17 {
        fill: #f3f3f3;
      }
    </style>
  </defs>
  <g id="Layer_1-2" data-name="Layer 1">
    <g>
      <path class="cls-9" d="M1832.8,964.7c-61.8-473.6-418.3-836.9-849-836.9S196.6,491.1,134.8,964.7h1698Z"/>
      <path class="cls-4" d="M1689.9,933.7c-64-379.9-355.8-666.9-706.1-666.9S341.6,553.8,277.7,933.7h1412.2Z"/>
      <path class="cls-6" d="M1473.7,889.7c-59.8-245.5-256.5-425.6-489.9-425.6s-430,180.1-489.9,425.6h979.8Z"/>
      <g>
        <ellipse class="cls-16" cx="812.7" cy="882.2" rx="95" ry="108.8"/>
        <ellipse class="cls-16" cx="1173.2" cy="904.9" rx="95" ry="108.8"/>
        <ellipse class="cls-16" cx="1446.8" cy="793.3" rx="133.5" ry="152.9"/>
        <ellipse class="cls-16" cx="523.3" cy="731.4" rx="114.2" ry="130.8"/>
        <ellipse class="cls-16" cx="889.2" cy="1006.8" rx="76.9" ry="88.1"/>
        <ellipse class="cls-16" cx="1269" cy="803.5" rx="89.9" ry="102.9"/>
        <ellipse class="cls-16" cx="1591.3" cy="765.1" rx="90.9" ry="104.1"/>
        <ellipse class="cls-16" cx="372" cy="750.9" rx="86.5" ry="99.1"/>
        <ellipse class="cls-16" cx="1026.3" cy="920.5" rx="100.8" ry="115.5"/>
        <ellipse class="cls-16" cx="666.1" cy="787.8" rx="96.6" ry="110.7"/>
      </g>
      <g>
        <ellipse class="cls-17" cx="645.8" cy="899.9" rx="131.9" ry="151.1"/>
        <ellipse class="cls-17" cx="1245.8" cy="922.9" rx="149" ry="170.7"/>
        <ellipse class="cls-17" cx="1562.2" cy="975.3" rx="158.6" ry="181.7"/>
        <ellipse class="cls-17" cx="288.9" cy="887.2" rx="158.6" ry="181.7"/>
        <ellipse class="cls-17" cx="817.6" cy="1072.5" rx="122.7" ry="140.5"/>
        <ellipse class="cls-17" cx="1486.5" cy="850.1" rx="124.8" ry="143"/>
        <ellipse class="cls-17" cx="1692" cy="887.2" rx="145.3" ry="166.4"/>
        <ellipse class="cls-17" cx="996.6" cy="1031.3" rx="140" ry="160.4"/>
        <ellipse class="cls-17" cx="466" cy="833" rx="129" ry="147.8"/>
      </g>
      <polygon class="cls-1" points="1175.1 938.3 1040.7 938.3 1077.5 530.6 1131.6 530.6 1175.1 938.3"/>
      <polygon class="cls-1" points="1052.7 938.3 917.7 938.3 954.5 530.6 1008.5 530.6 1052.7 938.3"/>
      <polygon class="cls-1" points="927.7 938.3 793.3 938.3 830.2 530.6 884.2 530.6 927.7 938.3"/>
      <polygon class="cls-3" points="857.3 795.3 832.9 558.7 880.7 558.7 857.3 795.3"/>
      <polygon class="cls-3" points="985.6 929.2 956.9 539.7 1011 539.7 985.6 929.2"/>
      <polygon class="cls-3" points="1108.7 797.7 1078 530.6 1132 530.6 1108.7 797.7"/>
      <g>
        <polygon class="cls-8" points="1036.6 534.1 935.2 534.1 940.3 478.4 1031.5 478.4 1036.6 534.1"/>
        <polygon class="cls-7" points="1028.1 534.1 1002.8 534.1 1004.5 478.4 1023 478.4 1028.1 534.1"/>
        <rect class="cls-8" x="928.7" y="530.6" width="113.3" height="11.1"/>
      </g>
      <path class="cls-12" d="M986.3,0h-.6c-.2.2-.5.3-.7.5-.2-.2-.5-.3-.7-.5h-.6c-69,50.6-122,188.8-122,269.1v100.1h.1c2.2,75.9,56.5,136.6,123.3,136.6s121.1-60.7,123.3-136.6h.1v-100.1c-.2-80.3-53.2-218.5-122.2-269.1Z"/>
      <path class="cls-8" d="M985,188.3c38.5,0,74.5-7.4,104.9-20.3-21.3-66.4-59.1-135.5-103.6-168h-.6c-.2.2-.5.3-.7.5-.2-.2-.5-.3-.7-.5h-.6c-44.5,32.6-82.3,101.6-103.6,168,30.4,12.9,66.3,20.3,104.9,20.3Z"/>
      <path class="cls-12" d="M991.7,4.2c39.5,81.1,64.6,178.1,64.6,245.4v137.4h-.1c-1.1,41.9-13,80.5-32.3,111.6,47.8-18.2,82.6-69,84.3-129.4h.1v-100.1c0-78.2-50.2-211.3-116.6-264.9Z"/>
      <g class="cls-13">
        <path class="cls-12" d="M926.7,406.3h0l-.1-136c0-74,24.4-184.2,61.6-268.9-.6-.5-1.3-1-1.9-1.4h-.6c-.2.2-.5.3-.7.5-.2-.2-.5-.3-.7-.5h-.6c-6.8,5-13.5,10.9-19.9,17.4-45.5,72.5-76.5,180.5-76.5,250.1v113.3h.1c1,40.3,13.5,76.8,33.4,104.3,7.3,5.1,15,9.4,23.2,12.7-10.4-27-16.6-58.2-17.3-91.5Z"/>
      </g>
      <ellipse class="cls-10" cx="985" cy="291.6" rx="64.5" ry="73.9"/>
      <g class="cls-14">
        <path class="cls-12" d="M988.3,245.9c-2.4.2-4.8.7-7.2,1.3-2.3.6-4.6,1.4-6.8,2.4-4.4,1.9-8.6,4.5-12.1,7.7-1.8,1.6-3.5,3.3-5,5.2-.8.9-1.5,1.9-2.2,2.9l-1,1.5c-.3.5-.7,1-1,1.5l-.9,1.6c-.3.5-.6,1.1-.8,1.6-.6,1.1-1.1,2.2-1.6,3.3s-.9,2.2-1.4,3.4l-1.2,3.4c.3-1.2.5-2.4.9-3.6.4-1.2.7-2.4,1.1-3.5s.9-2.3,1.4-3.4c.3-.6.5-1.1.8-1.7l.9-1.6c1.2-2.2,2.5-4.2,4.1-6.2,1.5-1.9,3.2-3.7,5.1-5.4,3.7-3.3,8-5.9,12.6-7.6,4.5-1.8,9.4-2.9,14.3-2.8Z"/>
      </g>
      <g class="cls-15">
        <path class="cls-2" d="M1024.1,264.2c5.3,12,6.7,25.8,3.6,38.8-1.5,6.5-4.2,12.7-7.9,18.3-3.8,5.6-8.7,10.4-14.5,13.9s-12.5,5.5-19.3,5.7-13.5-1.3-19.5-4.4c-6-3-11.3-7.3-15.5-12.4-4.2-5.1-7.4-11-9.6-17.2,2.7,6,6.2,11.6,10.6,16.3,4.4,4.8,9.6,8.7,15.4,11.4s12.2,4,18.5,3.7,12.5-2.2,18-5.5c5.5-3.2,10.1-7.8,13.7-13,3.7-5.2,6.3-11.2,8-17.4s2.4-12.7,2.1-19.2c-.2-6.4-1.5-12.8-3.6-19Z"/>
      </g>
      <g>
        <path class="cls-8" d="M907.7,559h-88.4v-142.9c0-28,19.8-50.6,44.2-50.6h0c24.4,0,44.2,22.7,44.2,50.6v142.9h0Z"/>
        <path class="cls-7" d="M868.5,365.7c5,8.2,8,18.2,8,29v163h25.5v-142.9c0-23.7-14.3-43.6-33.5-49.1Z"/>
        <rect class="cls-8" x="810.7" y="548.2" width="104.6" height="10.8"/>
        <rect class="cls-5" x="867.4" y="548.2" width="47.3" height="10.8"/>
        <path class="cls-12" d="M847.7,378.9c-.4.2-.8.5-1.1.9l-.5.5-.5.5c-.7.7-1.2,1.5-1.8,2.3-.6.8-1,1.6-1.5,2.5-.5.8-.8,1.7-1.3,2.6-.2.4-.4.9-.6,1.3l-.5,1.3-1,2.7c-.5,1.8-1.1,3.7-1.6,5.5-2,7.4-3.1,15-3.9,22.6s-1.3,15.3-1.5,23c-.3,7.7-.2,15.4-.3,23.1-.2-3.8-.4-7.7-.6-11.5l-.1-2.9v-8.7c-.1-3.9.2-7.7.3-11.6l.1-2.9c0-1,.2-1.9.2-2.9l.5-5.8c.1-1.9.5-3.8.8-5.7l.4-2.9c.1-1,.3-1.9.5-2.9l1.1-5.7c.5-1.9,1-3.7,1.5-5.6.6-1.9,1.2-3.7,1.8-5.5l1.1-2.7.6-1.3c.2-.4.4-.9.7-1.3.5-.8.9-1.7,1.4-2.5s1-1.6,1.6-2.4c1.2-1.6,2.5-3.1,4.2-4Z"/>
      </g>
      <g>
        <path class="cls-8" d="M1153.1,559h-88.4v-142.9c0-28,19.8-50.6,44.2-50.6h0c24.4,0,44.2,22.7,44.2,50.6v142.9h0Z"/>
        <path class="cls-7" d="M1113.9,365.7c5,8.2,8,18.2,8,29v163h25.5v-142.9c-.1-23.7-14.3-43.6-33.5-49.1Z"/>
        <rect class="cls-8" x="1056" y="548.2" width="104.6" height="10.8"/>
        <rect class="cls-5" x="1112.7" y="548.2" width="47.3" height="10.8"/>
        <path class="cls-12" d="M1093.1,378.9c-.4.2-.8.5-1.1.9l-.5.5-.5.5c-.7.7-1.2,1.5-1.8,2.3-.6.8-1,1.6-1.5,2.5-.5.8-.8,1.7-1.3,2.6-.2.4-.4.9-.6,1.3l-.5,1.3-1,2.7c-.5,1.8-1.1,3.7-1.6,5.5-2,7.4-3.1,15-3.9,22.6s-1.3,15.3-1.5,23c-.3,7.7-.2,15.4-.3,23.1-.2-3.8-.4-7.7-.6-11.5l-.1-2.9v-8.7c-.1-3.9.2-7.7.3-11.6l.1-2.9c0-1,.2-1.9.2-2.9l.5-5.8c.1-1.9.5-3.8.8-5.7l.4-2.9c.1-1,.3-1.9.5-2.9l1.1-5.7c.5-1.9,1-3.7,1.5-5.6.6-1.9,1.2-3.7,1.8-5.5l1.1-2.7.6-1.3c.2-.4.4-.9.7-1.3.5-.8.9-1.7,1.4-2.5s1-1.6,1.6-2.4c1.1-1.6,2.5-3.1,4.2-4Z"/>
      </g>
      <g>
        <ellipse class="cls-11" cx="646.3" cy="1056.9" rx="126.7" ry="145.1"/>
        <ellipse class="cls-11" cx="1247.8" cy="964.6" rx="126.7" ry="145.1"/>
        <ellipse class="cls-11" cx="1598.6" cy="1021.6" rx="152.3" ry="174.5"/>
        <ellipse class="cls-11" cx="366.1" cy="1007.5" rx="152.3" ry="174.5"/>
        <ellipse class="cls-11" cx="769.7" cy="1241.3" rx="117.8" ry="134.9"/>
        <ellipse class="cls-11" cx="842.8" cy="1026.5" rx="140.3" ry="160.7"/>
        <ellipse class="cls-11" cx="1401" cy="1029.7" rx="119.9" ry="137.3"/>
        <ellipse class="cls-11" cx="1806" cy="952.7" rx="161.6" ry="185.1"/>
        <ellipse class="cls-11" cx="153.3" cy="938.3" rx="153.3" ry="175.6"/>
        <ellipse class="cls-11" cx="1054.9" cy="1090.4" rx="181.2" ry="207.5"/>
        <ellipse class="cls-11" cx="542.5" cy="916.1" rx="103.8" ry="118.9"/>
      </g>
    </g>
  </g>
</svg>