<?xml version="1.0" encoding="UTF-8"?>
<svg id="Layer_2" data-name="Layer 2" xmlns="http://www.w3.org/2000/svg" viewBox="0 0 190 37.52">
  <defs>
    <style>
      .cls-1 {
        fill: #231f20;
        fill-rule: evenodd;
      }
    </style>
  </defs>
  <g id="Layer_1-2" data-name="Layer 1">
    <g>
      <path class="cls-1" d="M185.21,28.59c.11,1.31,1.16,2.98,2.98,2.98h1.06c.41,0,.75-.34.75-.75V7.46h0c-.02-.39-.35-.71-.74-.71h-3.29c-.4,0-.72.32-.74.71h0v1.9c-2.02-2.49-5.19-3.52-8.38-3.52-7.25,0-13.12,5.88-13.12,13.13s5.87,13.13,13.12,13.13h0c3.19,0,6.66-1.24,8.38-3.52h0ZM176.84,27.51c-4.61,0-8.34-3.82-8.34-8.54s3.74-8.53,8.34-8.53,8.34,3.82,8.34,8.53-3.74,8.54-8.34,8.54h0Z"/>
      <path class="cls-1" d="M159.55,29.39v-12.09s0,0,0,0c0-6.81-4.29-11.41-11.14-11.41-3.27,0-5.95,1.89-6.9,3.52-.2-1.27-.88-2.61-2.97-2.61h-1.07c-.41,0-.75.34-.75.75v21.09h0v2.27h0c.02.39.35.71.74.71h3.29c.05,0,.1,0,.15-.02.02,0,.04-.01.06-.02.02,0,.05-.01.07-.02.03-.01.06-.03.08-.04.01,0,.03-.01.04-.02.03-.02.06-.05.09-.07,0,0,.01,0,.02-.01.03-.03.06-.07.09-.1h0c.08-.11.13-.25.14-.4h0v-13.8c0-3.66,2.96-6.63,6.62-6.63s6.62,2.97,6.62,6.63v11.53s0,0,0,0c0,.01,0,.02,0,.03v2.24h0c.02.39.35.71.74.71h3.29c.05,0,.1,0,.15-.02.02,0,.04-.01.06-.02.03,0,.05-.01.08-.02.03-.01.05-.03.08-.04.02,0,.03-.02.05-.03.03-.02.06-.04.09-.07,0,0,.01-.01.02-.02.03-.03.06-.06.08-.1,0,0,0,0,0,0,.08-.11.13-.25.14-.39,0,0,0,0,0,0h0v-1.52h0"/>
      <path class="cls-1" d="M125.28,28.59c.12,1.31,1.16,2.98,2.98,2.98h1.06c.41,0,.75-.34.75-.75V7.46h0c-.02-.39-.35-.71-.74-.71h-3.29c-.4,0-.72.32-.75.71h0v1.9c-2.02-2.49-5.2-3.52-8.38-3.52-7.25,0-13.12,5.88-13.12,13.13s5.87,13.13,13.12,13.13h0c3.19,0,6.66-1.24,8.38-3.52h0ZM116.91,27.51c-4.61,0-8.34-3.82-8.34-8.54s3.74-8.53,8.34-8.53,8.34,3.82,8.34,8.53-3.74,8.54-8.34,8.54h0Z"/>
      <path class="cls-1" d="M84.31,25.24c2.2,1.52,4.59,2.26,6.9,2.26s4.46-1.14,4.46-3.12c0-2.65-4.95-3.06-8.05-4.12-3.11-1.06-5.78-3.24-5.78-6.78,0-5.41,4.82-7.65,9.32-7.65,2.85,0,5.79.94,7.7,2.29.66.5.26,1.07.26,1.07l-1.82,2.6c-.2.29-.56.55-1.08.23-.51-.32-2.31-1.59-5.06-1.59s-4.4,1.27-4.4,2.84c0,1.89,2.15,2.48,4.67,3.12,4.39,1.18,9.17,2.61,9.17,7.99,0,4.77-4.46,7.72-9.39,7.72-3.73,0-6.91-1.07-9.58-3.02-.56-.56-.17-1.07-.17-1.07l1.81-2.59c.37-.48.83-.32,1.04-.17"/>
      <path class="cls-1" d="M71.66,28.59c.12,1.31,1.16,2.98,2.98,2.98h1.06c.41,0,.75-.34.75-.75V7.46h0c-.02-.39-.35-.71-.74-.71h-3.29c-.4,0-.72.32-.75.71h0v1.9c-2.02-2.49-5.19-3.52-8.38-3.52-7.25,0-13.12,5.88-13.12,13.13s5.87,13.13,13.12,13.13h0c3.19,0,6.66-1.24,8.38-3.52h0ZM63.29,27.51c-4.61,0-8.34-3.82-8.34-8.54s3.74-8.53,8.34-8.53,8.34,3.82,8.34,8.53-3.74,8.54-8.34,8.54h0Z"/>
      <path class="cls-1" d="M31.77,19.87c-4.88,0-8.83,3.95-8.83,8.83s3.95,8.83,8.83,8.83,8.83-3.95,8.83-8.83-3.95-8.83-8.83-8.83h0ZM8.83,19.87c-4.88,0-8.83,3.95-8.83,8.83s3.95,8.83,8.83,8.83,8.83-3.95,8.83-8.83-3.95-8.83-8.83-8.83h0ZM29.13,8.83c0,4.88-3.95,8.83-8.83,8.83s-8.83-3.95-8.83-8.83S15.42,0,20.3,0s8.83,3.95,8.83,8.83h0Z"/>
    </g>
  </g>
</svg>