<?xml version="1.0" encoding="UTF-8"?>
<svg id="Layer_2" data-name="Layer 2" xmlns="http://www.w3.org/2000/svg" viewBox="0 0 147.78 40.94">
  <defs>
    <style>
      .cls-1 {
        fill: #231f20;
      }
    </style>
  </defs>
  <g id="Layer_1-2" data-name="Layer 1">
    <g>
      <path class="cls-1" d="M146.87,35.63c0-2.28-1.61-3.94-3.84-3.94s-3.84,1.67-3.84,3.94,1.62,3.94,3.84,3.94,3.84-1.67,3.84-3.94ZM142.02,35.83v2.58h-.83v-5.68h2.07c1.21,0,1.77.53,1.77,1.56,0,.64-.43,1.14-.98,1.21v.02c.48.08.66.51.76,1.29.08.51.18,1.39.36,1.6h-.98c-.23-.53-.21-1.29-.38-1.92-.15-.48-.4-.66-.95-.66h-.81s0,0,0,0h0ZM143.05,35.09c.81,0,1.04-.43,1.04-.81,0-.45-.23-.8-1.04-.8h-1.03v1.62h1.03ZM138.28,35.63c0-2.8,2.23-4.7,4.75-4.7s4.75,1.9,4.75,4.7-2.22,4.7-4.75,4.7-4.75-1.9-4.75-4.7Z"/>
      <path class="cls-1" d="M121.82,39.5l-5.47-6.14-5.43,6.14h-11.42l11.16-12.54-11.16-12.54h11.77l5.53,6.09,5.32-6.09h11.36l-11.1,12.49,11.26,12.59h-11.82ZM77.58,39.5V0h21.92v8.81h-12.64v5.62h12.64v8.47h-12.64v7.78h12.64v8.83h-21.92Z"/>
      <path class="cls-1" d="M68.33,0v16.17h-.1c-2.05-2.35-4.61-3.17-7.57-3.17-6.08,0-10.66,4.14-12.27,9.6-1.83-6.02-6.56-9.71-13.58-9.71-5.7,0-10.19,2.56-12.54,6.72v-5.18h-11.77v-5.62h12.85V0H0v39.5h10.49v-16.6h10.46c-.32,1.28-.48,2.59-.48,3.91,0,8.24,6.29,14.02,14.33,14.02,6.76,0,11.21-3.17,13.56-8.95h-8.99c-1.22,1.74-2.14,2.25-4.57,2.25-2.82,0-5.25-2.46-5.25-5.37h18.31c.79,6.54,5.89,12.19,12.89,12.19,3.02,0,5.78-1.48,7.47-3.99h.1v2.56h9.25V0h-9.25ZM29.84,23.02c.58-2.51,2.53-4.15,4.96-4.15,2.67,0,4.52,1.59,5.01,4.15h-9.97ZM62.71,33.49c-3.41,0-5.53-3.18-5.53-6.49,0-3.55,1.84-6.95,5.53-6.95s5.35,3.41,5.35,6.95c0,3.36-1.61,6.49-5.35,6.49Z"/>
    </g>
  </g>
</svg>