<?xml version="1.0" encoding="UTF-8"?>
<svg id="Layer_2" data-name="Layer 2" xmlns="http://www.w3.org/2000/svg" viewBox="0 0 83.89 58.72">
  <defs>
    <style>
      .cls-1 {
        fill: #fff;
      }

      .cls-1, .cls-2 {
        fill-rule: evenodd;
      }

      .cls-2 {
        fill: #231f20;
      }
    </style>
  </defs>
  <g id="Layer_1-2" data-name="Layer 1">
    <g>
      <path class="cls-1" d="M34.91,6.4c2.71-2.82,6.47-4.57,10.64-4.57,5.54,0,10.37,3.09,12.94,7.67,2.3-1.03,4.79-1.56,7.31-1.56,9.99,0,18.08,8.17,18.08,18.24s-8.1,18.24-18.08,18.24c-1.22,0-2.41-.12-3.56-.36-2.27,4.04-6.58,6.77-11.54,6.77-2,0-3.98-.45-5.78-1.33-2.3,5.4-7.65,9.19-13.88,9.19s-12.03-4.11-14.15-9.87c-.95.2-1.91.3-2.88.3-7.73,0-14-6.33-14-14.15,0-5.24,2.82-9.81,7-12.25-.89-2.04-1.34-4.24-1.34-6.47C5.66,7.29,12.96,0,21.95,0c5.28,0,9.98,2.51,12.95,6.4"/>
      <g>
        <path class="cls-2" d="M12.15,30.45c-.05.14.02.17.04.19.16.11.32.2.48.29.86.45,1.66.59,2.51.59,1.72,0,2.79-.91,2.79-2.39v-.03c0-1.36-1.21-1.86-2.34-2.21l-.15-.05c-.85-.28-1.59-.52-1.59-1.08v-.03c0-.48.43-.83,1.1-.83.74,0,1.62.25,2.19.56,0,0,.17.11.23-.05.03-.09.32-.86.35-.94.03-.09-.02-.16-.08-.19-.65-.39-1.54-.66-2.47-.66h-.17c-1.57,0-2.67.95-2.67,2.32v.03c0,1.44,1.21,1.9,2.35,2.23l.18.06c.83.25,1.54.47,1.54,1.06v.03c0,.53-.46.93-1.21.93-.29,0-1.22,0-2.22-.64-.12-.07-.19-.12-.28-.18-.05-.03-.17-.08-.23.08l-.34.94ZM37.34,30.45c-.05.14.02.17.04.19.16.11.32.2.48.29.86.45,1.66.59,2.51.59,1.72,0,2.79-.91,2.79-2.39v-.03c0-1.36-1.21-1.86-2.34-2.21l-.15-.05c-.85-.28-1.59-.52-1.59-1.08v-.03c0-.48.43-.83,1.1-.83.74,0,1.62.25,2.19.56,0,0,.17.11.23-.05.03-.09.32-.86.35-.94.03-.09-.02-.16-.08-.19-.65-.39-1.54-.66-2.47-.66h-.17c-1.57,0-2.67.95-2.67,2.32v.03c0,1.44,1.21,1.9,2.35,2.23l.18.06c.83.25,1.54.47,1.54,1.06v.03c0,.53-.46.93-1.21.93-.29,0-1.22,0-2.22-.64-.12-.07-.19-.12-.28-.18-.03-.02-.18-.08-.23.08l-.34.94ZM54.54,27.56c0,.83-.16,1.49-.46,1.95-.3.46-.76.68-1.4.68s-1.09-.22-1.39-.68c-.3-.46-.45-1.12-.45-1.95s.15-1.49.45-1.95c.3-.45.75-.68,1.39-.68s1.1.22,1.4.68c.31.46.46,1.11.46,1.94M55.97,26.02c-.14-.48-.36-.9-.65-1.25-.29-.35-.66-.63-1.1-.84-.44-.2-.96-.31-1.54-.31s-1.1.1-1.54.31c-.44.2-.81.49-1.1.84-.29.35-.51.77-.65,1.25-.14.47-.21.99-.21,1.54s.07,1.07.21,1.54c.14.48.36.9.65,1.25.29.35.67.63,1.1.83.44.2.96.3,1.54.3s1.1-.1,1.54-.3c.44-.2.81-.48,1.1-.83.29-.35.51-.77.65-1.25.14-.47.21-.99.21-1.54s-.07-1.07-.21-1.54M67.77,29.97c-.05-.14-.18-.09-.18-.09-.21.08-.43.15-.67.19-.24.04-.5.06-.79.06-.69,0-1.25-.21-1.64-.62-.4-.41-.62-1.07-.62-1.96,0-.81.2-1.42.55-1.89.35-.46.88-.7,1.59-.7.59,0,1.04.07,1.52.22,0,0,.11.05.17-.1.13-.35.22-.6.35-.98.04-.11-.06-.16-.09-.17-.19-.07-.63-.19-.96-.24-.31-.05-.67-.07-1.08-.07-.6,0-1.14.1-1.6.31-.46.2-.85.49-1.16.84-.31.35-.54.77-.7,1.25-.16.47-.23.99-.23,1.55,0,1.19.32,2.15.96,2.86.64.71,1.59,1.07,2.84,1.07.74,0,1.49-.15,2.03-.36,0,0,.1-.05.06-.17l-.35-.97ZM70.28,26.76c.07-.46.2-.85.39-1.15.3-.45.75-.71,1.39-.71s1.06.25,1.36.71c.2.3.29.7.32,1.15h-3.47ZM75.12,25.75c-.12-.46-.42-.93-.62-1.14-.31-.34-.62-.57-.92-.7-.44-.19-.91-.28-1.39-.28-.61,0-1.16.1-1.61.31-.45.21-.82.5-1.12.85-.3.36-.52.78-.66,1.26-.14.48-.21,1-.21,1.55s.07,1.08.22,1.55c.15.47.38.89.7,1.24.32.35.73.62,1.22.81.49.19,1.08.29,1.76.29,1.4,0,2.14-.32,2.45-.49.05-.03.1-.08.04-.23l-.32-.89c-.05-.13-.18-.08-.18-.08-.35.13-.84.36-2,.36-.75,0-1.31-.22-1.66-.57-.36-.36-.54-.88-.57-1.62h4.86s.13,0,.14-.12c0-.05.17-1-.15-2.09h0ZM31.34,26.76c.07-.46.2-.85.39-1.15.3-.45.75-.71,1.39-.71s1.06.25,1.36.71c.2.3.29.7.32,1.15h-3.47ZM36.18,25.75c-.12-.46-.42-.93-.62-1.14-.31-.34-.62-.57-.92-.7-.44-.19-.91-.28-1.39-.28-.61,0-1.16.1-1.61.31-.45.21-.82.5-1.12.85-.29.36-.52.78-.66,1.26-.14.48-.21,1-.21,1.55s.07,1.08.22,1.55c.15.47.38.89.7,1.24.32.35.73.62,1.22.81.49.19,1.08.29,1.77.29,1.4,0,2.14-.32,2.45-.49.05-.03.1-.08.04-.23l-.32-.89c-.05-.13-.18-.08-.18-.08-.35.13-.84.36-2,.36-.75,0-1.31-.22-1.66-.57-.36-.36-.54-.88-.57-1.62h4.86s.13,0,.14-.12c0-.05.17-1-.15-2.09ZM20.83,29.95c-.19-.15-.22-.19-.28-.29-.1-.15-.15-.36-.15-.63,0-.43.14-.73.43-.94,0,0,.42-.36,1.41-.35.44,0,.88.05,1.32.11v2.21h0s-.62.13-1.31.17c-.99.06-1.43-.28-1.42-.28h0ZM22.77,26.53c-.2-.01-.45-.02-.76-.02-.42,0-.82.05-1.2.15-.38.1-.72.26-1.01.47-.29.21-.54.48-.71.8-.17.32-.26.7-.26,1.12s.07.8.22,1.11c.14.3.36.56.63.76.27.2.6.34.99.43.38.09.81.13,1.29.13.5,0,1-.04,1.48-.12.41-.07.82-.15,1.22-.24.16-.04.34-.09.34-.09.12-.03.11-.16.11-.16v-4.45c0-.98-.26-1.7-.78-2.15-.51-.45-1.26-.67-2.23-.67-.36,0-.95.05-1.3.12,0,0-1.06.21-1.5.55,0,0-.1.06-.04.19l.34.92c.04.12.16.08.16.08,0,0,.04-.01.08-.04.94-.51,2.12-.49,2.12-.49.53,0,.93.11,1.2.31.27.2.4.51.4,1.16v.21c-.42-.06-.8-.1-.8-.1ZM61.98,24.03s.01-.03.01-.05c0-.05-.03-.1-.08-.12-.08-.03-.5-.12-.81-.14-.61-.04-.95.06-1.25.2-.3.14-.64.36-.82.61v-.59c0-.08-.06-.15-.14-.15h-1.25c-.08,0-.14.07-.14.15v7.25c0,.08.07.15.15.15h1.28c.08,0,.15-.07.15-.15v-3.62c0-.49.05-.97.16-1.28.11-.3.25-.54.43-.72.17-.17.37-.29.6-.36.21-.06.43-.09.65-.09.25,0,.53.07.53.07.09.01.15-.05.18-.13.08-.22.32-.89.37-1.02"/>
        <path class="cls-2" d="M49.99,20.67c-.16-.05-.32-.09-.48-.11-.22-.04-.44-.05-.66-.05-.88,0-1.57.25-2.06.74-.48.49-.81,1.23-.98,2.2l-.06.33h-1.1s-.13,0-.16.14l-.18,1.01c-.01.1.03.16.16.16h1.07l-1.09,6.09c-.09.49-.18.89-.29,1.2-.11.3-.21.53-.34.69-.12.16-.24.28-.45.34-.17.06-.36.08-.57.08-.12,0-.27-.02-.39-.04-.12-.02-.18-.05-.26-.09,0,0-.13-.05-.18.08-.04.1-.33.89-.36.99-.03.1.01.17.07.19.14.05.25.08.44.13.27.06.5.07.71.07.45,0,.86-.06,1.19-.18.34-.12.64-.34.9-.63.28-.31.46-.64.63-1.09.17-.44.31-.99.43-1.63l1.1-6.2h1.6s.14,0,.16-.14l.18-1.01c.01-.1-.03-.16-.16-.16h-1.55s.08-.58.26-1.1c.08-.22.22-.4.34-.52.11-.12.25-.2.41-.25.17-.05.34-.08.52-.08.15,0,.29.02.4.04.15.03.21.05.25.06.16.05.18,0,.21-.08l.37-1.02c.04-.11-.05-.16-.09-.17M28.27,31.18c0,.08-.06.15-.14.15h-1.29c-.08,0-.14-.07-.14-.15v-10.38c0-.08.06-.15.14-.15h1.29c.08,0,.14.07.14.15v10.38Z"/>
      </g>
    </g>
  </g>
</svg>