<?xml version="1.0" encoding="UTF-8"?>
<svg id="Layer_2" data-name="Layer 2" xmlns="http://www.w3.org/2000/svg" viewBox="0 0 126.67 36.13">
  <defs>
    <style>
      .cls-1 {
        fill: #231f20;
      }

      .cls-2 {
        fill: #fff;
      }
    </style>
  </defs>
  <g id="Layer_1-2" data-name="Layer 1">
    <g>
      <path class="cls-2" d="M27.23,6.87c-.02-.19-.19-.27-.31-.27s-2.84-.21-2.84-.21c0,0-1.88-1.88-2.11-2.07-.21-.21-.6-.14-.77-.1-.02,0-.41.12-1.06.33-.64-1.84-1.74-3.52-3.7-3.52h-.19c-.54-.7-1.24-1.03-1.82-1.03-4.55,0-6.75,5.69-7.43,8.59-1.78.56-3.04.93-3.19.99-.99.31-1.01.33-1.14,1.26-.1.7-2.69,20.71-2.69,20.71l20.14,3.77,10.93-2.36s-3.81-25.91-3.83-26.09ZM19.04,4.84c-.5.14-1.1.33-1.7.54v-.37c0-1.12-.14-2.03-.41-2.75,1.03.12,1.68,1.26,2.11,2.59h0ZM15.67,2.48c.27.7.46,1.7.46,3.06v.21c-1.12.35-2.3.7-3.52,1.1.68-2.61,1.99-3.89,3.06-4.37h0ZM14.34,1.2c.21,0,.41.08.58.21-1.47.68-3.02,2.4-3.66,5.88-.97.31-1.9.58-2.79.87.74-2.65,2.61-6.95,5.88-6.95Z"/>
      <path class="cls-2" d="M26.92,6.56c-.12,0-2.84-.21-2.84-.21,0,0-1.88-1.88-2.11-2.07-.08-.08-.19-.12-.27-.12l-1.51,31.16,10.93-2.36s-3.83-25.91-3.85-26.09c-.08-.19-.23-.27-.35-.31Z"/>
      <path class="cls-1" d="M16.45,12.6l-1.32,3.99s-1.2-.64-2.63-.64c-2.13,0-2.23,1.35-2.23,1.68,0,1.82,4.76,2.52,4.76,6.81,0,3.37-2.13,5.55-5.01,5.55-3.48,0-5.21-2.15-5.21-2.15l.93-3.06s1.82,1.57,3.35,1.57c1.01,0,1.43-.79,1.43-1.37,0-2.38-3.89-2.48-3.89-6.42,0-3.29,2.36-6.48,7.14-6.48,1.78-.02,2.69.52,2.69.52Z"/>
      <path class="cls-2" d="M43.81,20.11c-1.1-.58-1.66-1.1-1.66-1.78,0-.87.79-1.43,2.01-1.43,1.43,0,2.69.58,2.69.58l.99-3.04s-.91-.7-3.6-.7c-3.75,0-6.35,2.15-6.35,5.17,0,1.72,1.22,3.02,2.84,3.95,1.32.72,1.78,1.26,1.78,2.05s-.66,1.47-1.88,1.47c-1.8,0-3.52-.93-3.52-.93l-1.06,3.04s1.57,1.06,4.22,1.06c3.85,0,6.64-1.9,6.64-5.32-.04-1.86-1.43-3.15-3.1-4.12ZM59.16,13.7c-1.9,0-3.39.91-4.53,2.28l-.04-.02,1.66-8.61h-4.28l-4.18,21.94h4.28l1.43-7.49c.56-2.84,2.03-4.59,3.39-4.59.97,0,1.35.66,1.35,1.59,0,.58-.04,1.32-.19,1.9l-1.61,8.59h4.28l1.68-8.86c.19-.93.31-2.05.31-2.81-.02-2.46-1.28-3.91-3.54-3.91h0ZM72.39,13.7c-5.17,0-8.59,4.66-8.59,9.85,0,3.31,2.05,6,5.9,6,5.07,0,8.48-4.53,8.48-9.85.02-3.08-1.76-6-5.79-6ZM70.28,26.28c-1.47,0-2.07-1.24-2.07-2.81,0-2.46,1.26-6.46,3.6-6.46,1.51,0,2.03,1.32,2.03,2.59,0,2.63-1.3,6.68-3.56,6.68h0ZM89.17,13.7c-2.9,0-4.53,2.57-4.53,2.57h-.04l.25-2.3h-3.81c-.19,1.55-.54,3.93-.87,5.69l-2.96,15.71h4.28l1.2-6.35h.1s.89.56,2.5.56c5.05,0,8.34-5.17,8.34-10.39-.02-2.9-1.32-5.48-4.47-5.48ZM85.07,26.32c-1.12,0-1.78-.64-1.78-.64l.7-3.99c.5-2.69,1.9-4.45,3.39-4.45,1.32,0,1.72,1.22,1.72,2.36.02,2.77-1.63,6.73-4.04,6.73h0ZM99.74,7.55c-1.37,0-2.46,1.1-2.46,2.48,0,1.26.81,2.15,2.03,2.15h.04c1.35,0,2.48-.91,2.5-2.48.02-1.26-.83-2.15-2.11-2.15ZM93.74,29.26h4.28l2.9-15.23h-4.3M111.85,14.01h-2.98l.14-.7c.25-1.47,1.12-2.75,2.57-2.75.77,0,1.37.23,1.37.23l.83-3.37s-.72-.37-2.34-.37c-1.51,0-3.04.43-4.2,1.43-1.47,1.24-2.15,3.04-2.48,4.86l-.12.7h-2.01l-.64,3.25h2.01l-2.28,12h4.28l2.28-12h2.96l.62-3.27h0ZM122.18,14.03s-2.69,6.77-3.87,10.47h-.04c-.08-1.2-1.06-10.47-1.06-10.47h-4.51l2.59,13.95c.04.31.02.5-.1.7-.5.97-1.35,1.9-2.34,2.59-.81.58-1.72.97-2.44,1.22l1.2,3.64c.87-.19,2.69-.91,4.2-2.34,1.95-1.82,3.77-4.66,5.63-8.51l5.24-11.28h-4.49v.02Z"/>
    </g>
  </g>
</svg>