<?xml version="1.0" encoding="UTF-8"?>
<svg id="Layer_2" data-name="Layer 2" xmlns="http://www.w3.org/2000/svg" xmlns:xlink="http://www.w3.org/1999/xlink" viewBox="0 0 93.02 38.58">
  <defs>
    <style>
      .cls-1 {
        mask: url(#mask);
      }

      .cls-2 {
        fill: #fff;
      }

      .cls-2, .cls-3 {
        fill-rule: evenodd;
      }

      .cls-3 {
        fill: #231f20;
      }
    </style>
    <mask id="mask" x="0" y="0" width="93.02" height="38.58" maskUnits="userSpaceOnUse">
      <g id="b">
        <path id="a" class="cls-2" d="M.01,0h93.01v38.58H.01V0Z"/>
      </g>
    </mask>
  </defs>
  <g id="Layer_1-2" data-name="Layer 1">
    <g class="cls-1">
      <path class="cls-3" d="M9.72,17.35c-2-.74-3.1-1.32-3.1-2.22,0-.77.63-1.21,1.76-1.21,2.06,0,4.17.8,5.63,1.51l.82-5.08c-1.15-.55-3.51-1.46-6.78-1.46-2.31,0-4.23.6-5.6,1.73-1.43,1.18-2.17,2.88-2.17,4.94,0,3.73,2.28,5.33,5.99,6.67,2.39.85,3.19,1.46,3.19,2.39s-.77,1.43-2.17,1.43c-1.73,0-4.59-.85-6.45-1.95l-.82,5.13c1.59.91,4.56,1.84,7.63,1.84,2.44,0,4.48-.58,5.85-1.67,1.54-1.21,2.33-2.99,2.33-5.3,0-3.82-2.33-5.41-6.1-6.75h0ZM29.23,14.36l.82-5.05h-4.35V3.18l-5.85.96-.84,5.17-2.06.33-.77,4.72h2.82v9.91c0,2.58.66,4.37,2,5.46,1.13.91,2.75,1.35,5.03,1.35,1.76,0,2.83-.3,3.57-.49v-5.35c-.41.11-1.35.3-1.98.3-1.35,0-1.92-.69-1.92-2.25v-8.92h3.53ZM42.29,9.01c-1.92,0-3.46,1.01-4.06,2.82l-.41-2.53h-5.96v21.36h6.81v-13.87c.85-1.04,2.06-1.42,3.71-1.42.36,0,.74,0,1.21.08v-6.29c-.47-.11-.88-.16-1.29-.16ZM48.66,7.19c1.98,0,3.57-1.62,3.57-3.6s-1.59-3.6-3.57-3.6-3.6,1.59-3.6,3.6,1.59,3.6,3.6,3.6h0ZM45.23,9.31h6.84v21.36h-6.84V9.31ZM71.44,11.23c-1.21-1.57-2.88-2.33-5.03-2.33-1.98,0-3.71.82-5.33,2.55l-.36-2.14h-5.99v29.27l6.81-1.13v-6.86c1.04.33,2.11.49,3.08.49,1.7,0,4.17-.44,6.1-2.53,1.84-2,2.77-5.11,2.77-9.2,0-3.62-.69-6.37-2.06-8.13h0ZM65.78,24.41c-.55,1.04-1.4,1.59-2.39,1.59-.69,0-1.29-.14-1.84-.41v-10.16c1.15-1.21,2.2-1.35,2.58-1.35,1.73,0,2.58,1.87,2.58,5.52,0,2.09-.3,3.71-.93,4.81h0ZM93.02,19.8c0-3.4-.74-6.1-2.2-7.99-1.48-1.92-3.71-2.91-6.54-2.91-5.79,0-9.39,4.28-9.39,11.15,0,3.84.96,6.73,2.86,8.57,1.7,1.65,4.15,2.47,7.3,2.47,2.91,0,5.6-.69,7.3-1.81l-.74-4.67c-1.68.91-3.62,1.4-5.82,1.4-1.32,0-2.22-.27-2.88-.85-.71-.6-1.13-1.59-1.26-2.99h11.29c.03-.33.08-1.87.08-2.36h0ZM81.6,17.99c.19-3.05,1.02-4.48,2.58-4.48s2.33,1.46,2.44,4.48h-5.03Z"/>
    </g>
  </g>
</svg>