<?xml version="1.0" encoding="UTF-8"?>
<svg id="Layer_2" data-name="Layer 2" xmlns="http://www.w3.org/2000/svg" viewBox="0 0 172.19 50.63">
  <defs>
    <style>
      .cls-1 {
        fill: #fff;
      }
    </style>
  </defs>
  <g id="Layer_1-2" data-name="Layer 1">
    <g>
      <path class="cls-1" d="M93.14,6.75c0-.9.34-1.77.97-2.42.63-.65,1.49-1.03,2.39-1.05.92.01,1.79.38,2.44,1.03s1.02,1.53,1.03,2.44c-.02.9-.4,1.76-1.05,2.39-.65.63-1.52.98-2.42.97-.89,0-1.74-.37-2.37-.99-.63-.63-.99-1.48-.99-2.37h0ZM120.07,14.08c1.65,0,2.71.92,2.71,2.91-.19,1.95-.67,3.85-1.43,5.66-1.33,3.57-2.7,7.65-4.19,12.3-.66-2.24-1.94-5.77-3.52-9.9l-1.38-3.78c-.64-1.53-1.03-3.14-1.17-4.79-.04-.3-.02-.61.06-.91.08-.29.23-.57.43-.8.2-.23.44-.42.72-.56s.58-.2.88-.21v-.67h-11.55v.67c1.58.15,2.85,1.65,4.54,6.12l7.35,19.44c.48,1.1.71,2.3.66,3.5-.05,1.2-.38,2.38-.96,3.43-.82,1.84-2.05,2.75-3.47,2.75-1.78,0-2.7-.77-2.7-2.34,0-.62,1.18-1.84,1.18-3.01,0-1.65-1.28-2.4-2.7-2.4-.45-.02-.9.06-1.32.24-.42.17-.8.43-1.11.76-.31.33-.55.72-.7,1.15-.15.43-.21.88-.17,1.33.07,1.56.75,3.03,1.89,4.09s2.67,1.62,4.23,1.57c.76.03,1.52-.1,2.23-.37s1.36-.67,1.92-1.19c.61-.45,1.38-2.04,1.79-2.8.31-.61.56-1.24.77-1.89.35-.87.56-1.57.71-2.04.15-.46.46-1.23.82-2.4l.82-2.6c2.19-6.84,4.29-12.81,6.28-17.85,1.17-2.91,2.7-4.64,3.47-5,.41-.22.86-.38,1.32-.46v-.67h-8.4v.72ZM39.53,38.21c-1.48-.26-2.75-1.58-2.75-4.39V0l-8.41,1.82v.72c1.43-.16,2.86,1.12,2.86,3.83v27.44c0,2.66-1.43,4.18-2.86,4.39l-.4.05c-.73.05-1.46-.08-2.13-.38-1.21-.56-2.22-1.48-2.88-2.65l-3.9-6.27c-.82-1.31-2.04-2.32-3.49-2.88-1.44-.56-3.03-.64-4.52-.22l4.39-4.85c3.3-3.67,6.38-6.02,9.29-6.98v-.67h-9.62v.67c2.47.96,2.35,3.11-.51,6.47l-6.17,7.2V0L0,1.83v.72c1.43,0,2.86,1.43,2.86,3.93v27.35c0,3.01-1.38,4.18-2.86,4.39v.66h11.17v-.66c-1.84-.26-2.75-1.65-2.75-4.39v-5.05l2.4-2.61,5.81,9.54c1.38,2.29,2.65,3.21,4.69,3.21h19.41v-.52s-.56-.07-1.2-.18ZM65.43,38.28v.67s-5.72,2.05-7.45-1.43c-.46-.92-.71-1.93-.74-2.96-.79,1.52-1.98,2.79-3.45,3.68-1.47.88-3.15,1.34-4.86,1.32-4.12,0-7.09-1.94-7.09-6.18,0-1.07.32-2.12.92-3.01,1.22-1.83,2.65-2.8,5.3-3.83,1.33-.5,2.47-.87,3.3-1.12.82-.26,1.99-.51,3.3-.76l2.58-.62v-3.06c0-5.1-2.19-7.42-5.25-7.42-2.4,0-3.78,1.58-3.78,3.42,0,1.01.72,2.47.72,3.57,0,1.43-1.28,2.47-3.06,2.47s-2.65-1.38-2.65-3.22.92-3.52,2.8-4.95c1.79-1.39,4-2.15,6.27-2.14,7.17,0,10.29,3.4,10.41,10.86v11.39c.02.73.23,3.72,2.74,3.32h0ZM57.23,24.81c-.31.16-1.01.41-2.19.82l-2.34.87c-.59.28-1.02.51-1.89.97-.67.32-1.27.75-1.79,1.28-.86.97-1.37,2.21-1.43,3.51,0,3.01,1.65,4.64,4.12,4.64,1.36-.04,2.66-.57,3.68-1.48.59-.48,1.07-1.09,1.39-1.78.32-.69.47-1.45.45-2.21v-6.63ZM151.7,26.16c.02,1.76-.3,3.51-.96,5.14s-1.63,3.12-2.87,4.37c-1.17,1.24-2.59,2.23-4.15,2.91-1.57.68-3.26,1.03-4.97,1.03s-3.4-.35-4.97-1.03c-1.57-.68-2.98-1.67-4.15-2.91-2.47-2.54-3.83-5.96-3.79-9.51-.03-1.75.29-3.48.94-5.11.65-1.62,1.62-3.1,2.84-4.35,1.16-1.26,2.58-2.26,4.14-2.94,1.57-.69,3.26-1.04,4.98-1.04s3.41.35,4.98,1.04c1.57.69,2.98,1.69,4.14,2.94,1.24,1.24,2.22,2.71,2.87,4.34.66,1.62.98,3.36.95,5.11h0ZM143.36,17.09c-1.01-1.98-2.34-3.13-3.89-3.45-3.16-.63-5.95,2.61-6.99,7.77-.45,2.31-.56,4.68-.32,7.03.22,2.36.87,4.67,1.92,6.8,1.01,1.97,2.34,3.13,3.9,3.44,3.15.63,6.02-2.75,7.07-7.96.88-4.4.42-9.7-1.69-13.62h0ZM99.46,33.82V13.36h-17.95v.62c2.4.35,3.54,2.16,2.47,5.1-5.64,15.26-5.31,14.57-5.64,15.79-.35-1.17-1.17-4.06-2.47-7.68-1.3-3.62-2.19-6.02-2.55-7.09-1.38-4.23-.92-5.77,1.33-6.07v-.67h-11.64v.67c1.74.35,3.3,2.34,4.54,5.91l1.78,4.64c1.96,5.01,4.27,11.94,5.04,14.28h3.87c1.25-3.62,6.24-18.14,6.91-19.59.56-1.43,1.4-2.73,2.47-3.83.93-.9,2.17-1.41,3.46-1.44.37-.03.73.02,1.08.15.35.13.66.32.93.58.26.26.47.56.61.9.14.34.2.71.19,1.07v17.1c0,2.85-1.38,4.18-2.81,4.39v.66h11.12v-.66c-1.52-.21-2.74-1.53-2.74-4.39Z"/>
      <path class="cls-1" d="M169.63,0h-19.51v13.36h19.51l-3.85-6.68,3.85-6.68Z"/>
      <path class="cls-1" d="M170.7,12.42v.94h-.1v-.94h-.39v-.09h.82v.09h-.34Z"/>
      <path class="cls-1" d="M171.66,13.36l-.35-.89v.89h-.09v-1.03h.13l.35.9.35-.9h.13v1.03h-.1v-.89l-.35.89h-.08Z"/>
    </g>
  </g>
</svg>