<?xml version="1.0" encoding="UTF-8"?>
<svg id="Layer_2" data-name="Layer 2" xmlns="http://www.w3.org/2000/svg" viewBox="0 0 150.42 40.45">
  <defs>
    <style>
      .cls-1 {
        fill: #231f20;
        fill-rule: evenodd;
      }
    </style>
  </defs>
  <g id="Layer_1-2" data-name="Layer 1">
    <g>
      <g>
        <path class="cls-1" d="M68.78,25c-1.05.24-1.59-.08-1.59-.78,0-.95.99-1.33,2.39-1.33.62,0,1.2.05,1.2.05,0,.41-.89,1.8-2,2.06ZM69.85,15.46c-3.36,0-5.78,1.24-5.78,1.24v3.63s2.66-1.53,4.83-1.53c1.72,0,1.94.93,1.86,1.7,0,0-.5-.13-2.02-.13-3.58,0-5.38,1.63-5.38,4.23,0,2.47,2.03,3.51,3.74,3.51,2.5,0,3.59-1.68,3.93-2.47.23-.55.28-.92.49-.92.24,0,.16.27.15.82-.02.96.03,1.69.18,2.3h3.31v-5.95c0-3.72-1.31-6.42-5.3-6.42"/>
        <path class="cls-1" d="M91.63,21.79c0-1.09,1.01-2.08,2.87-2.08,2.02,0,3.65.97,4.01,1.19v-4.21s-1.28-1.24-4.44-1.24c-3.33,0-6.1,1.95-6.1,6.14s2.52,6.52,6.09,6.52c2.79,0,4.46-1.53,4.46-1.53v-4c-.53.29-1.99,1.31-4,1.31-2.12,0-2.89-.98-2.89-2.11h0ZM47.4,15.74s.21.91-.07,2.09c-.14.6-.4,1.11-.09,1.11.22,0,.22-.18.5-.82.41-.94,1.28-2.66,3.31-2.66s2.84,1.17,3.14,2.27c.23.83.03,1.21.31,1.21.2,0,.27-.43.51-.98.44-.98,1.39-2.5,3.33-2.5,2.91,0,4.03,2.1,4.03,5.26v7.11h-4.33v-6.56c0-1.09-.18-2.15-1.17-2.15-.92,0-1.35,1.64-1.35,2.69v6.02h-4.41v-6.56c0-1.4-.2-2.15-1.18-2.15-.85,0-1.35,1.51-1.35,2.69v6.02h-4.39v-12.1h3.22ZM76.59,15.76s.75.43,2.2.43,2.19-.43,2.19-.43v12.08h-4.39v-12.08ZM112.84,15.76s.75.43,2.2.43,2.19-.43,2.19-.43v12.08h-4.39v-12.08ZM86.8,12.08v15.76h-4.39v-15.76h4.39ZM103.73,12.08s.18.45.18,1.8c0,1.99-.43,3.61-.64,4.23-.11.33-.3.83-.02.84.16,0,.26-.24.45-.65.2-.42,1.16-2.83,3.7-2.83,3.5,0,4.02,2.87,4.02,5.97v6.4h-4.39v-6.67c0-1.37-.29-2.05-1.2-2.05-1.11,0-1.5,1.71-1.5,2.69v6.02h-4.39v-15.76h3.79,0ZM121.94,15.74s.21.91-.07,2.09c-.14.6-.4,1.11-.09,1.11.22,0,.22-.18.5-.82.41-.94,1.28-2.66,3.31-2.66s2.82,1.18,3.14,2.27c.22.73.03,1.21.31,1.21.2,0,.27-.43.51-.98.44-.98,1.39-2.5,3.33-2.5,2.91,0,4.03,2.1,4.03,5.26v7.11h-4.33v-6.56c0-1.09-.18-2.15-1.17-2.15-.92,0-1.35,1.64-1.35,2.69v6.02h-4.41v-6.56c0-1.4-.2-2.15-1.18-2.15-.85,0-1.35,1.51-1.35,2.69v6.02h-4.39v-12.1h3.22ZM78.77,11.96c-1.48,0-2.69.79-2.69,1.75s1.2,1.75,2.69,1.75,2.69-.79,2.69-1.75-1.2-1.75-2.69-1.75ZM115.03,11.96c-1.48,0-2.69.79-2.69,1.75s1.2,1.75,2.69,1.75,2.69-.79,2.69-1.75-1.2-1.75-2.69-1.75Z"/>
        <path class="cls-1" d="M144.39,25.23c-1.01,0-1.75-1.28-1.75-3.06s.76-3.05,1.71-3.05c1.22,0,1.74,1.12,1.74,3.05s-.48,3.06-1.71,3.06h0ZM145.59,15.46c-2.26,0-3.29,1.69-3.74,2.66-.3.64-.28.82-.5.82-.31,0-.05-.51.09-1.11.28-1.18.07-2.09.07-2.09h-3.22v15.43h4.39v-4.89c.52.88,1.48,1.82,2.96,1.82,3.17,0,4.77-2.69,4.77-6.31,0-4.11-1.91-6.33-4.83-6.33"/>
      </g>
      <g>
        <path class="cls-1" d="M28.67,19.11c.3-.04.58-.04.84,0,.15-.35.18-.94.04-1.59-.2-.96-.47-1.55-1.04-1.45s-.58.79-.38,1.75c.11.54.31,1,.54,1.29"/>
        <path class="cls-1" d="M23.84,19.87c.4.18.65.29.75.19.06-.06.04-.19-.05-.34-.2-.32-.61-.65-1.04-.84-.89-.38-1.94-.25-2.76.33-.27.2-.52.47-.49.64.01.05.05.09.15.11.22.03,1-.37,1.89-.42.63-.04,1.15.16,1.56.34"/>
        <path class="cls-1" d="M23.03,20.34c-.52.08-.81.26-1,.42-.16.14-.26.29-.26.4,0,.05.02.08.04.1.02.02.05.03.09.03.12,0,.38-.11.38-.11.73-.26,1.21-.23,1.69-.18.26.03.39.05.45-.04.02-.03.04-.08-.01-.17-.12-.2-.65-.54-1.37-.45"/>
        <path class="cls-1" d="M27.04,22.03c.36.17.75.11.88-.15s-.06-.61-.41-.79-.75-.11-.88.15c-.13.26.06.61.41.79"/>
        <path class="cls-1" d="M29.32,20.03c-.29,0-.53.31-.54.71s.22.72.51.73.53-.31.54-.71c0-.4-.22-.72-.51-.73"/>
        <path class="cls-1" d="M9.9,27.18c-.07-.09-.19-.06-.3-.04-.08.02-.17.04-.27.04-.21,0-.39-.09-.49-.25-.13-.2-.12-.5.02-.85l.07-.15c.23-.52.62-1.39.18-2.22-.33-.62-.86-1.01-1.51-1.1-.62-.08-1.25.15-1.66.6-.64.71-.74,1.67-.62,2.01.05.12.12.16.17.17.11.01.27-.06.37-.34l.03-.09c.04-.14.13-.41.27-.62.17-.26.42-.44.72-.5.31-.07.62,0,.89.17.45.29.62.84.43,1.37-.1.27-.26.79-.22,1.21.07.86.6,1.21,1.08,1.24.46.02.79-.24.87-.43.05-.11,0-.18-.02-.21"/>
        <path class="cls-1" d="M14.3,11.36c1.51-1.74,3.37-3.26,5.03-4.11.06-.03.12.03.09.09-.13.24-.39.75-.47,1.14-.01.06.05.11.1.07,1.04-.71,2.84-1.46,4.42-1.56.07,0,.1.08.05.12-.24.18-.5.44-.7.7-.03.04,0,.11.05.11,1.11,0,2.67.4,3.69.97.07.04.02.17-.06.15-1.54-.35-4.07-.62-6.69.02-2.34.57-4.13,1.45-5.43,2.4-.07.05-.15-.04-.09-.1h0ZM21.82,28.26h0s0,0,0,0h0ZM28.05,29s.08-.07.07-.12c0-.06-.06-.11-.12-.1,0,0-3.22.48-6.27-.64.33-1.08,1.21-.69,2.55-.58,2.4.14,4.55-.21,6.15-.66,1.38-.4,3.19-1.18,4.6-2.29.47,1.04.64,2.19.64,2.19,0,0,.37-.07.67.12.29.18.5.55.36,1.51-.3,1.79-1.06,3.25-2.34,4.58-.78.84-1.72,1.57-2.81,2.1-.57.3-1.19.56-1.83.77-4.82,1.58-9.76-.16-11.36-3.88-.13-.28-.23-.57-.32-.88-.68-2.45-.1-5.39,1.7-7.24h0c.11-.12.22-.26.22-.43,0-.15-.09-.3-.17-.41-.63-.91-2.81-2.47-2.37-5.48.31-2.16,2.21-3.69,3.97-3.6l.45.03c.76.05,1.43.14,2.06.17,1.05.05,2-.11,3.12-1.04.38-.32.68-.59,1.2-.68.05,0,.19-.06.46-.04.27.01.53.09.77.25.9.6,1.03,2.05,1.07,3.11.03.61.1,2.07.12,2.49.06.96.31,1.1.82,1.27.29.09.55.17.95.28,1.19.33,1.9.67,2.34,1.11.27.27.39.56.43.84.14,1.02-.8,2.29-3.27,3.44-2.71,1.26-5.99,1.58-8.26,1.32l-.8-.09c-1.82-.24-2.85,2.1-1.76,3.71.7,1.04,2.62,1.71,4.53,1.71,4.39,0,7.76-1.87,9.02-3.49l.1-.14c.06-.09.01-.14-.07-.09-1.03.7-5.58,3.49-10.45,2.65,0,0-.59-.1-1.13-.31-.43-.17-1.33-.58-1.44-1.5,3.93,1.22,6.41.07,6.41.07h0ZM6.46,19.65c-1.37.27-2.57,1.04-3.31,2.11-.44-.37-1.26-1.08-1.41-1.36-1.18-2.23,1.28-6.58,3-9.03C9,5.32,15.65.74,18.73,1.57c.5.14,2.16,2.06,2.16,2.06,0,0-3.08,1.71-5.93,4.09-3.85,2.96-6.75,7.26-8.49,11.94h0ZM8.76,29.9c-.21.04-.42.05-.63.04-2.06-.06-4.28-1.91-4.5-4.1-.24-2.43,1-4.29,3.19-4.74.26-.05.58-.08.92-.07,1.23.07,3.04,1.01,3.46,3.69.37,2.37-.22,4.79-2.44,5.17h0ZM36.62,25.61c-.02-.06-.13-.48-.29-.99-.16-.51-.32-.86-.32-.86.63-.95.64-1.79.56-2.27-.09-.59-.34-1.1-.84-1.63-.5-.52-1.52-1.06-2.95-1.46l-.75-.21s-.04-1.77-.07-2.52c-.02-.54-.07-1.39-.33-2.22-.31-1.13-.86-2.11-1.54-2.74,1.87-1.94,3.04-4.08,3.04-5.92,0-3.53-4.34-4.6-9.68-2.39l-1.13.48s-2.05-2.01-2.08-2.03C14.14-4.46-4.9,16.71,1.19,21.85l1.33,1.13c-.35.89-.48,1.92-.37,3.02.14,1.42.87,2.77,2.06,3.82,1.12.99,2.6,1.63,4.03,1.62,2.37,5.46,7.78,8.81,14.13,9,6.81.2,12.53-2.99,14.92-8.73.16-.4.82-2.22.82-3.82s-.91-2.28-1.49-2.28"/>
      </g>
    </g>
  </g>
</svg>