<?xml version="1.0" encoding="UTF-8"?>
<svg id="Layer_2" data-name="Layer 2" xmlns="http://www.w3.org/2000/svg" viewBox="0 0 98.96 25.04">
  <defs>
    <style>
      .cls-1 {
        fill: #fff;
        fill-rule: evenodd;
      }
    </style>
  </defs>
  <g id="Layer_1-2" data-name="Layer 1">
    <g>
      <path class="cls-1" d="M31.66,19.72l1.24-2.87c1.34,1,3.11,1.52,4.86,1.52,1.3,0,2.11-.5,2.11-1.26-.02-2.11-7.75-.46-7.81-5.76-.02-2.69,2.37-4.76,5.76-4.76,2.01,0,4.03.5,5.46,1.63l-1.16,2.93c-1.32-.84-2.95-1.44-4.51-1.44-1.06,0-1.75.5-1.75,1.14.02,2.07,7.81.94,7.89,6,0,2.75-2.33,4.68-5.68,4.68-2.45,0-4.7-.58-6.42-1.81M79.08,15.81c-.62,1.08-1.77,1.81-3.11,1.81-1.97,0-3.57-1.59-3.57-3.57s1.59-3.57,3.57-3.57c1.34,0,2.49.74,3.11,1.81l3.41-1.89c-1.28-2.27-3.73-3.83-6.52-3.83-4.13,0-7.48,3.35-7.48,7.48s3.35,7.48,7.48,7.48c2.81,0,5.24-1.54,6.52-3.83l-3.41-1.89h0ZM45.47.38h4.27v20.87h-4.27V.38ZM84.17.38v20.87h4.27v-6.26l5.06,6.26h5.46l-6.44-7.44,5.96-6.94h-5.22l-4.82,5.76V.38h-4.27ZM62.42,15.85c-.62,1.02-1.89,1.77-3.33,1.77-1.97,0-3.57-1.59-3.57-3.57s1.59-3.57,3.57-3.57c1.44,0,2.71.8,3.33,1.83v3.53ZM62.42,6.88v1.69c-.7-1.18-2.43-1.99-4.25-1.99-3.75,0-6.7,3.31-6.7,7.46s2.95,7.5,6.7,7.5c1.81,0,3.55-.82,4.25-1.99v1.69h4.27V6.88h-4.27Z"/>
      <path class="cls-1" d="M5.28,15.83c0,1.46-1.18,2.63-2.63,2.63S.02,17.28.02,15.83s1.18-2.63,2.63-2.63h2.63v2.63ZM6.6,15.83c0-1.46,1.18-2.63,2.63-2.63s2.63,1.18,2.63,2.63v6.58c0,1.46-1.18,2.63-2.63,2.63s-2.63-1.18-2.63-2.63v-6.58Z"/>
      <path class="cls-1" d="M9.23,5.26c-1.46,0-2.63-1.18-2.63-2.63s1.18-2.63,2.63-2.63,2.63,1.18,2.63,2.63v2.63h-2.63ZM9.23,6.6c1.46,0,2.63,1.18,2.63,2.63s-1.18,2.63-2.63,2.63H2.63c-1.46,0-2.63-1.18-2.63-2.63s1.18-2.63,2.63-2.63h6.6Z"/>
      <path class="cls-1" d="M19.78,9.23c0-1.46,1.18-2.63,2.63-2.63s2.63,1.18,2.63,2.63-1.18,2.63-2.63,2.63h-2.63v-2.63ZM18.46,9.23c0,1.46-1.18,2.63-2.63,2.63s-2.63-1.18-2.63-2.63V2.63C13.2,1.18,14.37,0,15.83,0s2.63,1.18,2.63,2.63v6.6Z"/>
      <path class="cls-1" d="M15.83,19.78c1.46,0,2.63,1.18,2.63,2.63s-1.18,2.63-2.63,2.63-2.63-1.18-2.63-2.63v-2.63h2.63ZM15.83,18.46c-1.46,0-2.63-1.18-2.63-2.63s1.18-2.63,2.63-2.63h6.6c1.46,0,2.63,1.18,2.63,2.63s-1.18,2.63-2.63,2.63h-6.6Z"/>
    </g>
  </g>
</svg>